<svg width="646" height="114" viewBox="0 0 646 114" fill="none" xmlns="http://www.w3.org/2000/svg">
<g clip-path="url(#clip0_49_4389)">
<path d="M69.4081 60.7627V67.5223" stroke="white" stroke-width="3" stroke-linecap="round"/>
<path d="M69.4081 67.5223L67.0337 70.08" stroke="white" stroke-width="3" stroke-linecap="round"/>
<path d="M69.4081 67.5223L71.9653 70.08" stroke="white" stroke-width="3" stroke-linecap="round"/>
<path d="M12.7857 112.538H156.716" stroke="white" stroke-width="3" stroke-linecap="round"/>
<path d="M12.48 112.538C11.1993 99.3448 9.90573 69.1081 14.9775 53.7115" stroke="white" stroke-width="3" stroke-linecap="round"/>
<path d="M126.396 63.3943L134.981 60.032M126.396 68.9839H137.538M127.127 74.9039L136.624 77.9358" stroke="white" stroke-width="3" stroke-linecap="round"/>
<path d="M126.944 97.8493C134.615 90.3589 142.304 80.6762 153.977 58.3877C159.334 48.157 176.991 49.2531 177.356 70.4454C177.648 87.3993 163.961 105.522 157.082 112.465" stroke="white" stroke-width="3" stroke-linecap="round"/>
<path d="M124.204 55.0992C125.117 61.8589 128.588 75.1954 126.181 107.167" stroke="white" stroke-width="3" stroke-linecap="round"/>
<path d="M11.3245 74.5385L2.19183 77.8269" stroke="white" stroke-width="3" stroke-linecap="round"/>
<path d="M82.7418 21.3011C78.3581 34.1505 72.221 63.5762 82.0112 77.7531C94.249 95.4743 119.09 93.6473 127.127 83.2339" stroke="white" stroke-width="3" stroke-linecap="round"/>
<path d="M15.0215 53.5222C14.7161 38.1626 15.8641 6.45212 22.8987 2.48678C31.6919 -2.46991 48.9119 22.1299 47.2633 21.9464M40.485 25.9851C45.6147 20.6616 79.5052 15.7049 98.1906 25.9851M124.204 54.8077C123.899 39.448 122.922 1.14036 114.312 2.10506C101.305 3.56238 93.2447 19.7055 91.2293 21.9464" stroke="white" stroke-width="3" stroke-linecap="round"/>
<path d="M11.6898 68.6923H1.46121" stroke="white" stroke-width="3" stroke-linecap="round"/>
<path d="M12.4204 63.5768L3.65305 59.5576" stroke="white" stroke-width="3" stroke-linecap="round"/>
<path d="M28.4939 58.4615C30.5285 45.7885 51.9845 38.4118 57.7184 58.4615" stroke="white" stroke-width="3" stroke-linecap="round"/>
<path d="M28.4939 58.4615C33.8241 72.7802 51.8366 74.328 57.7184 58.4615" stroke="white" stroke-width="3" stroke-linecap="round"/>
<path d="M82.9245 58.4615C84.9337 45.7885 106.121 38.4118 111.784 58.4615" stroke="white" stroke-width="3" stroke-linecap="round"/>
<path d="M82.9245 58.4615C88.1882 72.3184 105.976 73.8165 111.784 58.4615" stroke="white" stroke-width="3" stroke-linecap="round"/>
<path fill-rule="evenodd" clip-rule="evenodd" d="M54.7959 57.2916C54.7959 62.0338 50.9524 65.8782 46.2112 65.8782C41.47 65.8782 37.6265 62.0338 37.6265 57.2916C37.6265 52.5494 41.47 48.7051 46.2112 48.7051C50.9524 48.7051 54.7959 52.5494 54.7959 57.2916ZM44.5673 53.0897C44.5673 53.8969 43.9131 54.5512 43.1061 54.5512C42.2991 54.5512 41.6449 53.8969 41.6449 53.0897C41.6449 52.2825 42.2991 51.6282 43.1061 51.6282C43.9131 51.6282 44.5673 52.2825 44.5673 53.0897Z" fill="white"/>
<path fill-rule="evenodd" clip-rule="evenodd" d="M109.227 57.2916C109.227 62.0338 105.383 65.8782 100.642 65.8782C95.9006 65.8782 92.0571 62.0338 92.0571 57.2916C92.0571 52.5494 95.9006 48.7051 100.642 48.7051C105.383 48.7051 109.227 52.5494 109.227 57.2916ZM98.9979 53.0897C98.9979 53.8969 98.3437 54.5512 97.5367 54.5512C96.7297 54.5512 96.0755 53.8969 96.0755 53.0897C96.0755 52.2825 96.7297 51.6282 97.5367 51.6282C98.3437 51.6282 98.9979 52.2825 98.9979 53.0897Z" fill="white"/>
<path d="M29.0898 74.6473C29.0898 77.8018 26.5331 80.3589 23.3796 80.3589C20.226 80.3589 17.6694 77.8018 17.6694 74.6473C17.6694 71.4928 20.226 68.9358 23.3796 68.9358C26.5331 68.9358 29.0898 71.4928 29.0898 74.6473Z" fill="white" stroke="white"/>
<path d="M121.512 75.0127C121.512 78.1672 118.956 80.7242 115.802 80.7242C112.648 80.7242 110.092 78.1672 110.092 75.0127C110.092 71.8582 112.648 69.3011 115.802 69.3011C118.956 69.3011 121.512 71.8582 121.512 75.0127Z" fill="white" stroke="white"/>
<path d="M71.1688 60.5319L71.1698 60.531L71.2151 60.4889L71.2162 60.4879L71.976 59.7775L71.9761 59.7774C72.7908 59.0161 73.4737 58.1249 73.9972 57.1401C74.2889 56.5907 73.9574 55.917 73.3447 55.813L71.1688 60.5319ZM71.1688 60.5319C70.241 61.3989 68.7961 61.3832 67.8874 60.4963C67.8874 60.4963 67.8874 60.4963 67.8874 60.4963L66.9822 59.6128L66.982 59.6127C66.3104 58.9576 65.7302 58.2145 65.2563 57.4039L65.1404 57.2052L65.1402 57.2048C64.8025 56.6272 65.1432 55.89 65.802 55.7729C65.802 55.7728 65.802 55.7728 65.802 55.7728L66.5841 55.634L66.5841 55.634C67.3987 55.4893 68.2243 55.4166 69.052 55.4166H69.5035H69.8206C70.6119 55.4166 71.4022 55.4833 72.1823 55.6157C72.1823 55.6157 72.1823 55.6157 72.1823 55.6157L73.3447 55.813L71.1688 60.5319Z" fill="white" stroke="white"/>
<path d="M35.0843 19.2528L35.0843 19.2528C36.0911 20.4428 35.9269 22.2271 34.72 23.2134L28.0479 28.6662C26.1793 30.1933 23.3847 28.7856 23.4995 26.3742L23.6964 22.2383L23.6964 22.2383L23.6966 22.233L23.9702 14.845C23.9702 14.845 23.9702 14.845 23.9702 14.845C24.0154 13.6236 24.8927 12.593 26.0907 12.3533C26.7509 12.2212 27.4367 12.3464 28.0076 12.7034L28.0077 12.7034L28.9142 13.2701L28.9142 13.2701C30.4738 14.245 31.8725 15.4562 33.0604 16.8605L33.4422 16.5375L33.0604 16.8605L35.0843 19.2528Z" fill="white" stroke="white"/>
<path d="M109.874 29.0209L109.874 29.0209L103.286 23.6368C103.286 23.6368 103.286 23.6368 103.286 23.6368C102.052 22.6284 101.912 20.7925 102.98 19.6093C102.98 19.6093 102.98 19.6093 102.98 19.6093L105.823 16.4581L105.823 16.4581C106.857 15.3121 108.036 14.3057 109.33 13.4644C109.33 13.4644 109.33 13.4644 109.33 13.4644L109.915 13.0838L109.916 13.0837C110.488 12.7117 111.183 12.5784 111.852 12.7123L111.852 12.7123C113.038 12.9495 113.906 13.9696 113.951 15.1784L114.225 22.5878L114.225 22.5878L114.225 22.5931L114.422 26.7289C114.537 29.1404 111.742 30.548 109.874 29.0209Z" fill="white" stroke="white"/>
<path d="M162.327 69.7285C161.862 69.803 161.386 69.7939 160.925 69.7029L162.327 69.7285ZM162.327 69.7285C162.529 69.6963 162.715 69.6493 162.895 69.604L162.899 69.6028L162.327 69.7285ZM166.821 70.8327L166.854 70.3338C166.703 70.3238 166.553 70.3043 166.405 70.2753C166.003 70.1957 165.613 70.0444 165.262 69.8299C165.108 69.7358 164.97 69.6337 164.818 69.5209C164.811 69.5157 164.804 69.5105 164.797 69.5053C164.555 69.3261 164.265 69.1108 163.91 69.0033L163.863 68.9889L163.813 68.9841C163.445 68.9489 163.095 69.0374 162.804 69.1111C162.795 69.1134 162.786 69.1157 162.777 69.118C162.593 69.1643 162.426 69.2063 162.248 69.2348L162.248 69.2348C161.842 69.2999 161.425 69.292 161.022 69.2124L161.022 69.2123C160.874 69.1833 160.728 69.1446 160.586 69.0966C159.351 68.6792 158.712 67.7809 158.757 66.8044L158.757 66.8043C158.807 65.7158 159.694 64.7468 161.012 64.5202L161.012 64.5202C161.328 64.4658 161.643 64.2531 161.899 64.0318C162.174 63.7948 162.452 63.485 162.697 63.1402L162.697 63.1401C163 62.713 163.737 61.7079 165.133 61.8944L165.164 61.8985L165.194 61.8988C165.199 61.8988 165.202 61.8991 165.205 61.8994C165.209 61.9005 165.215 61.902 165.221 61.9034C165.23 61.9059 165.244 61.9091 165.259 61.9122L165.259 61.9122L165.261 61.9125C165.276 61.9154 165.289 61.9173 165.298 61.9186L165.313 61.9206C165.315 61.9211 165.318 61.922 165.321 61.9233L165.351 61.9353L165.381 61.9434C166.744 62.3016 167.044 63.5112 167.162 64.0218C167.257 64.4336 167.397 64.8259 167.561 65.1492C167.714 65.4514 167.924 65.7676 168.196 65.9381C169.329 66.6488 169.782 67.882 169.416 68.9085C169.086 69.8292 168.153 70.4168 166.853 70.3337L166.821 70.8327ZM166.821 70.8327C168.291 70.9266 169.465 70.2539 169.886 69.077L165.001 70.2565C165.403 70.502 165.848 70.6748 166.309 70.7658C166.477 70.7991 166.649 70.8214 166.821 70.8327Z" fill="white" stroke="white"/>
<path d="M160.247 61.696L160.247 61.6958C160.279 60.6834 159.592 59.8102 158.701 59.6337C158.627 59.6195 158.554 59.6097 158.484 59.605L158.482 59.605C157.521 59.539 156.666 60.3158 156.631 61.4111L160.247 61.696ZM160.247 61.696C160.212 62.7905 159.358 63.5675 158.396 63.502C158.323 63.4969 158.249 63.4871 158.178 63.473L158.178 63.473M160.247 61.696L158.178 63.473M158.178 63.473C157.287 63.297 156.599 62.4235 156.631 61.4111L158.178 63.473Z" fill="white" stroke="white"/>
<path d="M163.347 56.2256L163.347 56.2255C162.387 56.036 161.399 56.7037 161.187 57.7775L163.347 56.2256ZM163.347 56.2256C164.307 56.4148 164.967 57.4082 164.755 58.4819L163.347 56.2256ZM164.755 58.4821C164.543 59.5558 163.555 60.2235 162.596 60.0343L164.755 58.4821ZM162.595 60.0343C161.636 59.8447 160.976 58.8512 161.187 57.7776L162.595 60.0343Z" fill="white" stroke="white"/>
<path d="M173.259 63.1784L173.259 63.1782C173.027 62.7252 172.638 62.4126 172.158 62.288L172.158 62.2878C171.207 62.0395 170.161 62.6534 169.867 63.7075L173.259 63.1784ZM173.259 63.1784C173.477 63.6049 173.527 64.1105 173.389 64.6061C173.105 65.6227 172.126 66.2319 171.199 66.0489L171.197 66.0485C171.164 66.0422 171.131 66.0347 171.098 66.026L171.098 66.026C170.618 65.901 170.229 65.5885 169.997 65.1354L169.997 65.135M173.259 63.1784L169.997 65.135M169.997 65.135C169.779 64.709 169.729 64.2031 169.867 63.7076L169.997 65.135Z" fill="white" stroke="white"/>
<path d="M168.36 61.1721L168.36 61.1722C169.32 61.3617 170.308 60.6939 170.52 59.6203C170.732 58.5464 170.072 57.553 169.112 57.3634L168.36 61.1721ZM168.36 61.1721C167.401 60.9829 166.74 59.9894 166.952 58.9158L166.952 58.9156M168.36 61.1721L166.952 58.9156M166.952 58.9156C167.164 57.8421 168.152 57.1742 169.112 57.3634L166.952 58.9156Z" fill="white" stroke="white"/>
</g>
<path d="M215.41 32.15V38.6631C215.41 40.5365 215.463 41.8146 215.568 42.4974C215.691 43.1802 215.859 43.6091 216.07 43.7842C216.474 44.1169 217.117 44.2832 217.996 44.2832L218.049 44.5984H210.976L211.029 44.2832C211.891 44.2832 212.524 44.1256 212.929 43.8105C213.263 43.5479 213.457 42.69 213.51 41.2368C213.545 40.659 213.562 39.8011 213.562 38.6631V27.5541L206.172 44.3357L198.545 30.1278V38.6106C198.545 40.3614 198.624 41.6307 198.783 42.4186C198.959 43.189 199.231 43.6967 199.601 43.9418C199.97 44.1694 200.586 44.2832 201.448 44.2832L201.501 44.5984H195.008L195.061 44.2832C195.712 44.2832 196.196 44.2394 196.513 44.1519C196.847 44.0469 197.129 43.7842 197.357 43.364C197.586 42.9438 197.727 42.3836 197.78 41.6832C197.85 40.9829 197.885 39.9587 197.885 38.6106V32.1763C197.885 30.8282 197.85 29.8039 197.78 29.1036C197.727 28.4033 197.586 27.843 197.357 27.4228C197.129 27.0026 196.847 26.7488 196.513 26.6612C196.196 26.5562 195.712 26.5036 195.061 26.5036L195.008 26.2148H198.545L206.7 41.5257L213.43 26.2148H218.049L217.996 26.5036C217.117 26.5036 216.474 26.67 216.07 27.0026C215.63 27.3703 215.41 29.0861 215.41 32.15ZM240.579 44.5984H227.277L227.33 44.2832C228.209 44.2832 228.852 44.1169 229.256 43.7842C229.696 43.4166 229.916 41.7095 229.916 38.6631V32.15C229.916 30.2767 229.854 28.9986 229.731 28.3157C229.626 27.6154 229.467 27.1777 229.256 27.0026C228.852 26.67 228.209 26.5036 227.33 26.5036L227.277 26.2148H239.602V29.9965L239.285 29.944C239.285 28.771 238.661 27.9568 237.411 27.5016C236.18 27.0464 234.288 26.8188 231.737 26.8188V35.0914C233.426 35.0914 234.64 35.0039 235.379 34.8288C236.118 34.6537 236.593 34.3911 236.804 34.0409C237.016 33.6732 237.121 33.0692 237.121 32.2288L237.411 32.1763V38.558L237.121 38.5055C237.121 37.6476 237.016 37.0436 236.804 36.6934C236.593 36.3432 236.118 36.0894 235.379 35.9318C234.64 35.7567 233.426 35.6692 231.737 35.6692V39.057C231.737 40.9129 231.799 42.1472 231.922 42.76C232.063 43.3728 232.362 43.7842 232.819 43.9943C237.781 43.9943 240.262 42.9438 240.262 40.8429L240.579 40.7903V44.5984ZM258.927 25.9784C261.759 25.9784 264.02 26.8451 265.71 28.5784C267.416 30.2942 268.27 32.5265 268.27 35.2752C268.27 38.0065 267.443 40.2913 265.789 42.1297C264.152 43.9506 261.927 44.861 259.111 44.861C256.296 44.861 254.026 43.9418 252.302 42.1034C250.596 40.2651 249.742 37.9803 249.742 35.249C249.742 32.5002 250.561 30.2679 252.197 28.5521C253.85 26.8363 256.094 25.9784 258.927 25.9784ZM259.085 44.257C261.337 44.257 263.044 43.4516 264.205 41.8408C265.384 40.2126 265.973 38.0766 265.973 35.4328C265.973 32.7891 265.358 30.6531 264.126 29.0248C262.894 27.3966 261.152 26.5824 258.9 26.5824C256.666 26.5824 254.959 27.3878 253.78 28.9986C252.619 30.6093 252.039 32.7453 252.039 35.4066C252.039 38.0503 252.654 40.1863 253.886 41.8146C255.117 43.4428 256.85 44.257 259.085 44.257ZM281.373 27.5279C281.373 27.9306 281.469 28.4295 281.663 29.0248C281.857 29.6201 281.98 30.014 282.033 30.2066C282.226 30.7844 282.428 31.3884 282.64 32.0187L286.308 43.0751L289.766 32.3076C288.798 29.5063 288.12 27.8605 287.733 27.3703C287.575 27.1952 287.355 27.0289 287.073 26.8713C286.81 26.6962 286.554 26.5999 286.308 26.5824C286.062 26.5474 285.719 26.5299 285.279 26.5299L285.226 26.2148H292.326L292.273 26.5299C291.587 26.5299 291.112 26.5999 290.848 26.74C290.584 26.8626 290.452 27.1865 290.452 27.7117C290.452 28.2194 290.856 29.6551 291.666 32.0187L295.387 43.0751L298.871 32.0187C299.557 29.8127 299.9 28.3157 299.9 27.5279C299.9 27.1252 299.733 26.8626 299.399 26.74C299.082 26.5999 298.581 26.5299 297.894 26.5299L297.842 26.2148H304.255L304.229 26.5299C303.349 26.5299 302.698 26.6437 302.276 26.8713C301.853 27.0814 301.449 27.5541 301.061 28.2895C300.674 29.0248 300.199 30.2679 299.636 32.0187L295.598 44.7297H293.909L290.082 33.3844L286.546 44.7297H284.883L280.607 32.0187C280.132 30.6006 279.772 29.5851 279.525 28.9723C279.296 28.342 279.006 27.8168 278.654 27.3966C278.32 26.9589 277.994 26.705 277.678 26.635C277.361 26.5649 276.877 26.5299 276.226 26.5299L276.173 26.2148H283.273L283.22 26.5299C282.534 26.5299 282.05 26.5912 281.769 26.7137C281.505 26.8363 281.373 27.1077 281.373 27.5279ZM329.059 32.1238V44.7297H328.241L315.81 29.1036V38.6106C315.81 40.3614 315.89 41.622 316.048 42.3923C316.206 43.1627 316.47 43.6704 316.84 43.9155C317.209 44.1607 317.816 44.2832 318.661 44.2832L318.714 44.5984H312.221L312.274 44.2832C313.118 44.2832 313.725 44.1607 314.095 43.9155C314.464 43.6704 314.728 43.1627 314.887 42.3923C315.063 41.622 315.151 40.3614 315.151 38.6106V32.1238C315.151 30.373 315.063 29.1211 314.887 28.3683C314.728 27.5979 314.464 27.0989 314.095 26.8713C313.743 26.6262 313.136 26.5036 312.274 26.5036L312.221 26.2148H315.81L328.4 41.8408V32.1238C328.4 30.3905 328.312 29.1386 328.136 28.3683C327.977 27.5979 327.713 27.0989 327.344 26.8713C326.974 26.6262 326.359 26.5036 325.497 26.5036L325.444 26.2148H331.989L331.936 26.5036C331.074 26.5036 330.458 26.6262 330.089 26.8713C329.719 27.0989 329.455 27.5979 329.297 28.3683C329.139 29.1386 329.059 30.3905 329.059 32.1238ZM345.426 32.15V38.6631C345.426 40.5365 345.479 41.8146 345.585 42.4974C345.708 43.1802 345.875 43.6091 346.086 43.7842C346.491 44.1169 347.133 44.2832 348.013 44.2832L348.066 44.5984H340.94L340.993 44.2832C341.432 44.2832 341.776 44.2657 342.022 44.2307C342.268 44.1957 342.497 44.0994 342.708 43.9418C342.937 43.7842 343.095 43.6091 343.183 43.4166C343.289 43.2065 343.377 42.8651 343.447 42.3923C343.535 41.7795 343.579 40.5365 343.579 38.6631V32.15C343.579 30.3292 343.526 29.0598 343.421 28.342C343.315 27.6242 343.157 27.1777 342.946 27.0026C342.523 26.67 341.872 26.5036 340.993 26.5036L340.94 26.2148H348.066L348.013 26.5036C347.133 26.5036 346.491 26.67 346.086 27.0026C345.646 27.3703 345.426 29.0861 345.426 32.15ZM358.151 39.0308C358.151 40.729 358.564 42.0247 359.391 42.9176C360.236 43.8105 361.265 44.257 362.479 44.257C363.693 44.257 364.687 43.9681 365.461 43.3903C366.235 42.795 366.623 41.8671 366.623 40.6065C366.623 39.4685 366.016 38.453 364.801 37.5601C364.274 37.1749 363.684 36.7985 363.033 36.4308C362.382 36.0456 361.731 35.6517 361.08 35.249C360.429 34.8463 359.84 34.4261 359.312 33.9884C358.098 32.9729 357.491 31.7911 357.491 30.443C357.491 29.0773 357.983 27.9918 358.969 27.1865C359.972 26.3811 361.291 25.9784 362.928 25.9784C364.582 25.9784 366.112 26.3373 367.52 27.0551C367.52 27.9306 367.388 29.4363 367.124 31.5723L366.728 31.4672C366.728 29.8214 366.323 28.5959 365.514 27.7905C364.705 26.9676 363.772 26.5562 362.716 26.5562C361.678 26.5562 360.843 26.8626 360.209 27.4753C359.576 28.0706 359.259 28.7797 359.259 29.6026C359.259 30.4255 359.479 31.1346 359.919 31.7298C360.376 32.3076 360.939 32.7891 361.608 33.1743C362.294 33.5594 363.033 33.9884 363.825 34.4611C364.617 34.9163 365.347 35.3715 366.016 35.8268C366.702 36.2645 367.265 36.8422 367.705 37.5601C368.162 38.2779 368.391 39.0833 368.391 39.9762C368.391 41.587 367.81 42.8038 366.649 43.6267C365.505 44.4495 364.124 44.861 362.505 44.861C361.608 44.861 360.684 44.7209 359.734 44.4408C358.802 44.1607 358.036 43.7492 357.438 43.2065C357.438 42.0859 357.544 40.6678 357.755 38.952L358.151 39.0308ZM376.847 26.2148H392.049V29.9965L391.785 29.944C391.785 27.808 389.656 26.74 385.398 26.74V38.6631C385.398 41.2543 385.547 42.83 385.847 43.3903C385.952 43.6004 386.137 43.7842 386.401 43.9418C386.665 44.0994 386.946 44.1957 387.245 44.2307C387.544 44.2657 387.958 44.2832 388.486 44.2832L388.539 44.5984H380.41L380.462 44.2832C380.99 44.2832 381.404 44.2745 381.703 44.257C382.02 44.2219 382.301 44.1169 382.548 43.9418C382.811 43.7667 382.996 43.5829 383.102 43.3903C383.225 43.1977 383.33 42.8563 383.418 42.3661C383.506 41.7708 383.55 40.5365 383.55 38.6631V26.74C379.292 26.74 377.163 27.808 377.163 29.944L376.847 29.9965V26.2148ZM413.861 44.5984C413.421 44.5984 412.981 44.3795 412.541 43.9418C412.119 43.4866 411.732 42.9263 411.38 42.261C411.045 41.5957 410.65 40.8779 410.192 40.1075C409.735 39.3196 409.277 38.5843 408.82 37.9015C408.362 37.2187 407.782 36.6409 407.078 36.1682C406.374 35.6954 405.626 35.4416 404.834 35.4066V38.6631C404.834 40.554 404.887 41.8408 404.993 42.5236C405.116 43.1889 405.283 43.6091 405.494 43.7842C405.917 44.1169 406.568 44.2832 407.447 44.2832L407.5 44.5984H400.427L400.48 44.2832C401.342 44.2832 401.975 44.1256 402.38 43.8105C402.714 43.5479 402.908 42.69 402.961 41.2368C402.996 40.659 403.013 39.8011 403.013 38.6631V32.0187C403.013 30.0753 402.961 28.7885 402.855 28.1582C402.749 27.5279 402.591 27.1339 402.38 26.9764C401.975 26.6787 401.342 26.5299 400.48 26.5299L400.427 26.2148H406.55C410.984 26.2148 413.201 27.703 413.201 30.6793C413.201 31.9574 412.743 33.0342 411.828 33.9096C410.931 34.7675 409.84 35.2665 408.556 35.4066C409.84 36.1594 411.028 37.5426 412.119 39.556C412.541 40.3439 412.99 41.0967 413.465 41.8146C414.503 43.4603 415.84 44.2832 417.476 44.2832L417.529 44.5984H413.861ZM404.834 26.8188V34.8813H406.497C407.834 34.8813 408.943 34.5399 409.823 33.8571C410.702 33.1743 411.142 32.1588 411.142 30.8107C411.142 28.1494 409.611 26.8188 406.55 26.8188H404.834ZM431.912 38.6631C431.912 41.2543 432.062 42.83 432.361 43.3903C432.467 43.6004 432.651 43.7842 432.915 43.9418C433.179 44.0994 433.461 44.1957 433.76 44.2307C434.059 44.2657 434.472 44.2832 435 44.2832L435.053 44.5984H426.924L426.977 44.2832C427.505 44.2832 427.918 44.2745 428.217 44.257C428.534 44.2219 428.816 44.1169 429.062 43.9418C429.326 43.7667 429.511 43.5829 429.616 43.3903C429.739 43.1977 429.836 42.8563 429.907 42.3661C430.012 41.7708 430.065 40.5365 430.065 38.6631V37.0086L427.109 32.045C426.282 30.6443 425.666 29.6289 425.262 28.9986C424.857 28.3508 424.443 27.8168 424.021 27.3966C423.599 26.9764 423.247 26.7312 422.965 26.6612C422.701 26.5737 422.306 26.5299 421.778 26.5299L421.725 26.2148H428.297L428.244 26.5299C427.663 26.5299 427.25 26.5737 427.003 26.6612C426.775 26.7312 426.66 26.9063 426.66 27.1865C426.66 27.5016 426.766 27.8605 426.977 28.2632C427.206 28.6659 427.355 28.9373 427.426 29.0773C427.496 29.2174 427.61 29.4275 427.769 29.7076C427.927 29.9703 428.059 30.1891 428.165 30.3642C428.64 31.2046 428.965 31.7649 429.141 32.045L431.517 36.1156L433.549 32.045C434.763 29.5588 435.37 28.0181 435.37 27.4228C435.37 27.0376 435.238 26.7925 434.974 26.6875C434.728 26.5824 434.27 26.5299 433.602 26.5299L433.549 26.2148H439.461L439.408 26.5299C438.581 26.5299 437.886 26.67 437.323 26.9501C436.901 27.1602 436.302 27.9918 435.528 29.445C435.229 30.0053 434.789 30.8719 434.209 32.045L431.912 36.7197V38.6631ZM470.015 25.9784C472.848 25.9784 475.109 26.8451 476.798 28.5784C478.505 30.2942 479.358 32.5265 479.358 35.2752C479.358 38.0065 478.531 40.2913 476.877 42.1297C475.241 43.9506 473.015 44.861 470.2 44.861C467.385 44.861 465.115 43.9418 463.391 42.1034C461.684 40.2651 460.83 37.9803 460.83 35.249C460.83 32.5002 461.649 30.2679 463.285 28.5521C464.939 26.8363 467.182 25.9784 470.015 25.9784ZM470.173 44.257C472.426 44.257 474.132 43.4516 475.294 41.8408C476.472 40.2126 477.062 38.0766 477.062 35.4328C477.062 32.7891 476.446 30.6531 475.214 29.0248C473.983 27.3966 472.241 26.5824 469.989 26.5824C467.754 26.5824 466.047 27.3878 464.869 28.9986C463.707 30.6093 463.127 32.7453 463.127 35.4066C463.127 38.0503 463.742 40.1863 464.974 41.8146C466.206 43.4428 467.939 44.257 470.173 44.257ZM500.537 26.2148V29.9965L500.247 29.944C500.247 28.7885 499.622 27.9831 498.373 27.5279C497.141 27.0551 495.259 26.8188 492.725 26.8188V35.0914C493.746 35.0564 494.537 35.0039 495.1 34.9338C495.681 34.8463 496.121 34.68 496.42 34.4349C496.719 34.1722 496.904 33.8921 496.974 33.5945C497.045 33.2968 497.08 32.8416 497.08 32.2288L497.397 32.1763V38.558L497.08 38.5055C497.08 37.7001 496.992 37.1224 496.816 36.7722C496.658 36.422 496.27 36.1594 495.655 35.9843C495.056 35.8092 494.08 35.7042 492.725 35.6692V38.6631C492.725 41.1492 492.839 42.6024 493.068 43.0226C493.174 43.2502 493.288 43.4691 493.411 43.6792C493.552 43.8718 493.754 44.0031 494.018 44.0731C494.581 44.2132 495.268 44.2832 496.077 44.2832L496.13 44.5984H488.212L488.265 44.2832C489.144 44.2832 489.787 44.1169 490.191 43.7842C490.631 43.4166 490.851 41.7095 490.851 38.6631V32.15C490.851 30.2767 490.79 28.9986 490.666 28.3157C490.561 27.6154 490.402 27.1777 490.191 27.0026C489.787 26.67 489.144 26.5036 488.265 26.5036L488.212 26.2148H500.537ZM542.661 32.15V38.6631C542.661 40.5365 542.714 41.8146 542.819 42.4974C542.943 43.1802 543.11 43.6091 543.321 43.7842C543.726 44.1169 544.368 44.2832 545.248 44.2832L545.3 44.5984H538.227L538.28 44.2832C539.142 44.2832 539.775 44.1256 540.18 43.8105C540.514 43.5479 540.708 42.69 540.761 41.2368C540.796 40.659 540.814 39.8011 540.814 38.6631V27.5541L533.424 44.3357L525.796 30.1278V38.6106C525.796 40.3614 525.875 41.6307 526.034 42.4186C526.21 43.189 526.482 43.6967 526.852 43.9418C527.221 44.1694 527.837 44.2832 528.699 44.2832L528.752 44.5984H522.26L522.312 44.2832C522.963 44.2832 523.447 44.2394 523.764 44.1519C524.098 44.0469 524.38 43.7842 524.609 43.364C524.837 42.9438 524.978 42.3836 525.031 41.6832C525.101 40.9829 525.136 39.9587 525.136 38.6106V32.1763C525.136 30.8282 525.101 29.8039 525.031 29.1036C524.978 28.4033 524.837 27.843 524.609 27.4228C524.38 27.0026 524.098 26.7488 523.764 26.6612C523.447 26.5562 522.963 26.5036 522.312 26.5036L522.26 26.2148H525.796L533.952 41.5257L540.682 26.2148H545.3L545.248 26.5036C544.368 26.5036 543.726 26.67 543.321 27.0026C542.881 27.3703 542.661 29.0861 542.661 32.15ZM567.83 44.5984H554.528L554.581 44.2832C555.461 44.2832 556.103 44.1169 556.508 43.7842C556.947 43.4166 557.167 41.7095 557.167 38.6631V32.15C557.167 30.2767 557.106 28.9986 556.983 28.3157C556.877 27.6154 556.719 27.1777 556.508 27.0026C556.103 26.67 555.461 26.5036 554.581 26.5036L554.528 26.2148H566.853V29.9965L566.537 29.944C566.537 28.771 565.912 27.9568 564.663 27.5016C563.431 27.0464 561.54 26.8188 558.988 26.8188V35.0914C560.678 35.0914 561.892 35.0039 562.631 34.8288C563.37 34.6537 563.845 34.3911 564.056 34.0409C564.267 33.6732 564.373 33.0692 564.373 32.2288L564.663 32.1763V38.558L564.373 38.5055C564.373 37.6476 564.267 37.0436 564.056 36.6934C563.845 36.3432 563.37 36.0894 562.631 35.9318C561.892 35.7567 560.678 35.6692 558.988 35.6692V39.057C558.988 40.9129 559.05 42.1472 559.173 42.76C559.314 43.3728 559.613 43.7842 560.071 43.9943C565.032 43.9943 567.513 42.9438 567.513 40.8429L567.83 40.7903V44.5984ZM586.178 25.9784C589.011 25.9784 591.272 26.8451 592.961 28.5784C594.667 30.2942 595.521 32.5265 595.521 35.2752C595.521 38.0065 594.694 40.2913 593.04 42.1297C591.404 43.9506 589.178 44.861 586.363 44.861C583.547 44.861 581.278 43.9418 579.553 42.1034C577.847 40.2651 576.993 37.9803 576.993 35.249C576.993 32.5002 577.811 30.2679 579.448 28.5521C581.102 26.8363 583.345 25.9784 586.178 25.9784ZM586.336 44.257C588.588 44.257 590.295 43.4516 591.456 41.8408C592.635 40.2126 593.225 38.0766 593.225 35.4328C593.225 32.7891 592.609 30.6531 591.377 29.0248C590.145 27.3966 588.404 26.5824 586.151 26.5824C583.917 26.5824 582.21 27.3878 581.031 28.9986C579.87 30.6093 579.289 32.7453 579.289 35.4066C579.289 38.0503 579.905 40.1863 581.137 41.8146C582.369 43.4428 584.102 44.257 586.336 44.257ZM608.624 27.5279C608.624 27.9306 608.721 28.4295 608.914 29.0248C609.108 29.6201 609.231 30.014 609.284 30.2066C609.477 30.7844 609.68 31.3884 609.891 32.0187L613.559 43.0751L617.017 32.3076C616.049 29.5063 615.372 27.8605 614.984 27.3703C614.826 27.1952 614.606 27.0289 614.325 26.8713C614.061 26.6962 613.806 26.5999 613.559 26.5824C613.313 26.5474 612.97 26.5299 612.53 26.5299L612.477 26.2148H619.577L619.524 26.5299C618.838 26.5299 618.363 26.5999 618.099 26.74C617.835 26.8626 617.703 27.1865 617.703 27.7117C617.703 28.2194 618.108 29.6551 618.917 32.0187L622.638 43.0751L626.122 32.0187C626.808 29.8127 627.151 28.3157 627.151 27.5279C627.151 27.1252 626.984 26.8626 626.65 26.74C626.333 26.5999 625.832 26.5299 625.146 26.5299L625.093 26.2148H631.506L631.48 26.5299C630.6 26.5299 629.949 26.6437 629.527 26.8713C629.104 27.0814 628.7 27.5541 628.313 28.2895C627.926 29.0248 627.451 30.2679 626.887 32.0187L622.849 44.7297H621.16L617.333 33.3844L613.797 44.7297H612.134L607.859 32.0187C607.383 30.6006 607.023 29.5851 606.776 28.9723C606.548 28.342 606.257 27.8168 605.905 27.3966C605.571 26.9589 605.246 26.705 604.929 26.635C604.612 26.5649 604.128 26.5299 603.477 26.5299L603.425 26.2148H610.524L610.471 26.5299C609.785 26.5299 609.301 26.5912 609.02 26.7137C608.756 26.8363 608.624 27.1077 608.624 27.5279Z" fill="white"/>
<path d="M294.863 80.5486C294.619 80.4707 294.359 80.4027 294.086 80.3443C293.812 80.2762 293.509 80.2227 293.177 80.1838C292.854 80.1352 292.512 80.1109 292.15 80.1109C291.564 80.1109 291.065 80.2373 290.655 80.4902C290.244 80.7431 289.907 81.0689 289.643 81.4677C289.389 81.8568 289.203 82.2945 289.086 82.7809C288.969 83.2672 288.91 83.7487 288.91 84.2253C288.91 84.8284 288.993 85.3779 289.159 85.874C289.335 86.3606 289.57 86.7786 289.863 87.1287C290.166 87.4694 290.513 87.732 290.904 87.9166C291.305 88.1012 291.725 88.1938 292.165 88.1938C292.576 88.1938 292.952 88.1741 293.294 88.1355C293.636 88.0866 293.93 88.0384 294.174 87.9896C294.458 87.9312 294.711 87.8633 294.936 87.7853L295.185 88.8212C294.922 88.9087 294.628 88.9868 294.306 89.0546C294.032 89.113 293.714 89.1663 293.353 89.2151C292.991 89.264 292.595 89.2881 292.165 89.2881C291.393 89.2881 290.713 89.1619 290.127 88.9087C289.55 88.6556 289.066 88.3054 288.675 87.8582C288.294 87.4008 288.006 86.8661 287.81 86.2533C287.615 85.6311 287.517 84.9499 287.517 84.2107C287.517 83.3645 287.634 82.6204 287.869 81.9784C288.104 81.3267 288.426 80.782 288.837 80.3443C289.247 79.9066 289.736 79.5759 290.303 79.3522C290.87 79.1284 291.491 79.0166 292.165 79.0166C292.576 79.0166 292.957 79.0409 293.309 79.0896C293.67 79.1284 293.998 79.182 294.291 79.25C294.594 79.3181 294.872 79.3911 295.127 79.4689L294.863 80.5486ZM302.317 79.1479H303.842L307.273 89.0984H305.998L305.118 86.443H301.056L300.162 89.0984H298.886L302.317 79.1479ZM304.722 85.2758L303.109 80.3151H303.065L301.438 85.2758H304.722ZM313.175 80.2859H310.037V79.1479H317.544V80.2859H314.407V89.0984H313.175V80.2859ZM328.299 79.1479H334.427V80.2714H329.53V83.452H334.076V84.5463H329.53V89.0984H328.299V79.1479ZM339.163 79.1479H341.627C342.164 79.1479 342.653 79.1966 343.093 79.2938C343.542 79.3814 343.924 79.537 344.237 79.7607C344.55 79.9747 344.789 80.2617 344.955 80.6215C345.122 80.9814 345.204 81.4337 345.204 81.9784C345.195 82.5815 345.092 83.0727 344.896 83.452C344.701 83.8217 344.462 84.1232 344.178 84.3566C343.894 84.5803 343.567 84.7456 343.196 84.8527V84.8818C343.234 84.9207 343.293 84.9937 343.372 85.1007C343.46 85.1979 343.533 85.2855 343.591 85.3633L346.421 89.0984H344.97L342.067 85.1445H340.395V89.0984H339.163V79.1479ZM343.958 82.1827C343.958 81.7741 343.905 81.4435 343.797 81.1905C343.699 80.9279 343.547 80.7285 343.342 80.5923C343.146 80.4561 342.902 80.3638 342.609 80.3151C342.316 80.2665 341.984 80.2422 341.612 80.2422H340.395V84.0502H341.847C342.228 84.0502 342.55 84.0015 342.814 83.9043C343.078 83.8071 343.293 83.6757 343.46 83.5104C343.626 83.3353 343.748 83.1359 343.826 82.9122C343.905 82.6884 343.949 82.4453 343.958 82.1827ZM350.587 79.1479H351.819V89.0984H350.587V79.1479ZM357.328 79.1479H363.457V80.2714H358.56V83.452H363.105V84.5463H358.56V87.975H363.604V89.0984H357.328V79.1479ZM368.537 79.1479H369.71L374.959 87.0412H374.988C374.969 86.7589 374.955 86.4576 374.944 86.1366C374.925 85.8645 374.911 85.553 374.9 85.2028C374.9 84.843 374.9 84.4782 374.9 84.1086V79.1479H376.073V89.0984H374.9L369.651 81.1759H369.622C369.632 81.4677 369.647 81.7741 369.666 82.0951C369.676 82.3772 369.686 82.6933 369.695 83.0435C369.705 83.3936 369.71 83.7535 369.71 84.1232V89.0984H368.537V79.1479ZM382.825 87.975H384.804C385.341 87.975 385.845 87.9071 386.314 87.7707C386.793 87.6343 387.209 87.4154 387.561 87.1141C387.922 86.8026 388.206 86.3992 388.411 85.9032C388.616 85.4071 388.719 84.804 388.719 84.094C388.719 83.4325 388.626 82.8635 388.44 82.3869C388.255 81.9006 387.991 81.5018 387.649 81.1905C387.316 80.8793 386.906 80.6507 386.417 80.5048C385.938 80.3492 385.4 80.2714 384.804 80.2714H382.825V87.975ZM381.593 79.1479H384.804C385.596 79.1479 386.309 79.2452 386.945 79.4397C387.59 79.6343 388.142 79.9358 388.602 80.3443C389.061 80.7528 389.413 81.2684 389.657 81.8909C389.912 82.5134 390.039 83.2477 390.039 84.094C390.039 84.9499 389.901 85.6938 389.628 86.3263C389.355 86.9485 388.983 87.4694 388.514 87.8874C388.044 88.2959 387.492 88.6023 386.857 88.8066C386.221 89.0014 385.537 89.0984 384.804 89.0984H381.593V79.1479ZM395.007 79.1479H396.239V87.9312H400.784V89.0984H395.007V79.1479ZM406.235 85.48L403.039 79.1479H404.403L406.851 83.9773L409.315 79.1479H410.678L407.482 85.48V89.0984H406.235V85.48ZM428.162 80.5486C427.918 80.4707 427.66 80.4027 427.385 80.3443C427.112 80.2762 426.809 80.2227 426.476 80.1838C426.154 80.1352 425.812 80.1109 425.45 80.1109C424.863 80.1109 424.365 80.2373 423.954 80.4902C423.544 80.7431 423.207 81.0689 422.943 81.4677C422.689 81.8568 422.503 82.2945 422.385 82.7809C422.268 83.2672 422.209 83.7487 422.209 84.2253C422.209 84.8284 422.293 85.3779 422.459 85.874C422.635 86.3606 422.869 86.7786 423.163 87.1287C423.466 87.4694 423.813 87.732 424.204 87.9166C424.605 88.1012 425.025 88.1938 425.465 88.1938C425.875 88.1938 426.252 88.1741 426.594 88.1355C426.936 88.0866 427.229 88.0384 427.473 87.9896C427.757 87.9312 428.011 87.8633 428.236 87.7853L428.485 88.8212C428.221 88.9087 427.928 88.9868 427.605 89.0546C427.332 89.113 427.014 89.1663 426.652 89.2151C426.291 89.264 425.895 89.2881 425.465 89.2881C424.693 89.2881 424.013 89.1619 423.426 88.9087C422.85 88.6556 422.366 88.3054 421.975 87.8582C421.594 87.4008 421.306 86.8661 421.11 86.2533C420.915 85.6311 420.817 84.9499 420.817 84.2107C420.817 83.3645 420.934 82.6204 421.168 81.9784C421.403 81.3267 421.726 80.782 422.136 80.3443C422.547 79.9066 423.036 79.5759 423.602 79.3522C424.17 79.1284 424.79 79.0166 425.465 79.0166C425.875 79.0166 426.256 79.0409 426.608 79.0896C426.97 79.1284 427.297 79.182 427.591 79.25C427.894 79.3181 428.173 79.3911 428.426 79.4689L428.162 80.5486ZM432.384 84.1232C432.384 83.1797 432.53 82.382 432.824 81.7304C433.126 81.0787 433.508 80.5535 433.967 80.1546C434.437 79.7558 434.954 79.4689 435.522 79.2938C436.098 79.109 436.66 79.0166 437.208 79.0166C437.755 79.0166 438.312 79.0944 438.879 79.25C439.455 79.3959 439.974 79.6635 440.433 80.0525C440.903 80.4318 441.284 80.9522 441.577 81.6136C441.88 82.2751 442.032 83.1164 442.032 84.1377C442.032 85.091 441.88 85.8937 441.577 86.5451C441.284 87.1966 440.903 87.7269 440.433 88.1355C439.974 88.544 439.455 88.8409 438.879 89.0255C438.312 89.2005 437.755 89.2881 437.208 89.2881C436.66 89.2881 436.098 89.2005 435.522 89.0255C434.954 88.8504 434.437 88.5637 433.967 88.1646C433.508 87.7656 433.126 87.236 432.824 86.5743C432.53 85.9126 432.384 85.0958 432.384 84.1232ZM440.639 84.1961C440.639 82.883 440.331 81.886 439.715 81.2051C439.109 80.5243 438.293 80.1838 437.266 80.1838C436.748 80.1838 436.274 80.2665 435.844 80.4318C435.423 80.5875 435.057 80.8258 434.744 81.1468C434.441 81.4677 434.202 81.8714 434.026 82.3577C433.86 82.8343 433.777 83.3985 433.777 84.0502C433.777 85.3633 434.079 86.37 434.686 87.0704C435.302 87.7707 436.123 88.1209 437.149 88.1209C437.657 88.1209 438.126 88.0428 438.557 87.8874C438.986 87.7218 439.353 87.4738 439.656 87.1433C439.969 86.8129 440.208 86.4043 440.375 85.9177C440.551 85.4314 440.639 84.8576 440.639 84.1961ZM446.617 84.8089H450.532V85.8886H446.617V84.8089ZM454.578 79.1479H455.825L457.76 87.9312H457.775L460.341 79.1479H461.895L464.432 87.9312H464.446L466.367 79.1479H467.613L465.311 89.0984H463.757L461.118 80.3297H461.103L458.449 89.0984H456.895L454.578 79.1479ZM471.723 84.1232C471.723 83.1797 471.87 82.382 472.163 81.7304C472.466 81.0787 472.847 80.5535 473.307 80.1546C473.776 79.7558 474.294 79.4689 474.861 79.2938C475.437 79.109 476 79.0166 476.547 79.0166C477.094 79.0166 477.651 79.0944 478.219 79.25C478.795 79.3959 479.313 79.6635 479.773 80.0525C480.242 80.4318 480.623 80.9522 480.917 81.6136C481.219 82.2751 481.371 83.1164 481.371 84.1377C481.371 85.091 481.219 85.8937 480.917 86.5451C480.623 87.1966 480.242 87.7269 479.773 88.1355C479.313 88.544 478.795 88.8409 478.219 89.0255C477.651 89.2005 477.094 89.2881 476.547 89.2881C476 89.2881 475.437 89.2005 474.861 89.0255C474.294 88.8504 473.776 88.5637 473.307 88.1646C472.847 87.7656 472.466 87.236 472.163 86.5743C471.87 85.9126 471.723 85.0958 471.723 84.1232ZM479.978 84.1961C479.978 82.883 479.67 81.886 479.054 81.2051C478.448 80.5243 477.632 80.1838 476.606 80.1838C476.088 80.1838 475.613 80.2665 475.184 80.4318C474.763 80.5875 474.396 80.8258 474.084 81.1468C473.78 81.4677 473.541 81.8714 473.365 82.3577C473.199 82.8343 473.116 83.3985 473.116 84.0502C473.116 85.3633 473.419 86.37 474.025 87.0704C474.641 87.7707 475.462 88.1209 476.489 88.1209C476.997 88.1209 477.466 88.0428 477.896 87.8874C478.326 87.7218 478.692 87.4738 478.996 87.1433C479.308 86.8129 479.548 86.4043 479.714 85.9177C479.89 85.4314 479.978 84.8576 479.978 84.1961ZM486.338 79.1479H488.801C489.339 79.1479 489.828 79.1966 490.268 79.2938C490.717 79.3814 491.098 79.537 491.411 79.7607C491.724 79.9747 491.963 80.2617 492.13 80.6215C492.296 80.9814 492.379 81.4337 492.379 81.9784C492.369 82.5815 492.267 83.0727 492.071 83.452C491.875 83.8217 491.636 84.1232 491.353 84.3566C491.069 84.5803 490.742 84.7456 490.37 84.8527V84.8818C490.409 84.9207 490.468 84.9937 490.546 85.1007C490.634 85.1979 490.707 85.2855 490.766 85.3633L493.596 89.0984H492.144L489.241 85.1445H487.57V89.0984H486.338V79.1479ZM491.133 82.1827C491.133 81.7741 491.079 81.4435 490.971 81.1905C490.874 80.9279 490.722 80.7285 490.517 80.5923C490.321 80.4561 490.077 80.3638 489.784 80.3151C489.49 80.2665 489.158 80.2422 488.787 80.2422H487.57V84.0502H489.021C489.402 84.0502 489.725 84.0015 489.989 83.9043C490.253 83.8071 490.468 83.6757 490.634 83.5104C490.801 83.3353 490.922 83.1359 491.001 82.9122C491.079 82.6884 491.123 82.4453 491.133 82.1827ZM497.762 79.1479H498.993V83.7438L503.187 79.1479H504.726L500.885 83.3207L505.313 89.0984H503.773L500.034 84.2253L498.993 85.3633V89.0984H497.762V79.1479ZM509.429 79.1479H510.66V89.0984H509.429V79.1479ZM516.17 79.1479H517.343L522.592 87.0412H522.621C522.602 86.7589 522.587 86.4576 522.577 86.1366C522.558 85.8645 522.543 85.553 522.533 85.2028C522.533 84.843 522.533 84.4782 522.533 84.1086V79.1479H523.706V89.0984H522.533L517.284 81.1759H517.255C517.265 81.4677 517.28 81.7741 517.299 82.0951C517.309 82.3772 517.318 82.6933 517.328 83.0435C517.338 83.3936 517.343 83.7535 517.343 84.1232V89.0984H516.17V79.1479ZM536.836 80.5486C536.405 80.461 535.946 80.3784 535.457 80.3005C534.979 80.2227 534.421 80.1741 533.786 80.1546C533.141 80.1643 532.584 80.2617 532.114 80.4464C531.645 80.6312 531.259 80.8987 530.956 81.2489C530.663 81.5894 530.443 81.9979 530.296 82.4745C530.15 82.9511 530.076 83.4763 530.076 84.0502C530.076 84.7894 530.169 85.4217 530.355 85.9469C530.551 86.4722 530.814 86.9048 531.147 87.2455C531.489 87.5759 531.885 87.8196 532.334 87.975C532.784 88.1303 533.268 88.2084 533.786 88.2084C534.118 88.2084 534.416 88.1887 534.68 88.15C534.954 88.1114 535.188 88.0676 535.384 88.0187C535.589 87.9604 535.775 87.8969 535.941 87.8291V85.1591H534.108V84.0648H537.188V88.4273C536.845 88.6512 536.372 88.8555 535.765 89.04C535.169 89.2151 534.509 89.2976 533.786 89.2881C533.121 89.2881 532.481 89.21 531.865 89.0546C531.259 88.8992 530.716 88.6264 530.237 88.2376C529.768 87.8385 529.392 87.2987 529.108 86.6181C528.825 85.9374 528.683 85.0764 528.683 84.0356C528.683 83.1894 528.815 82.455 529.079 81.8325C529.343 81.2002 529.7 80.6799 530.15 80.2714C530.609 79.8531 531.137 79.5418 531.733 79.3376C532.339 79.1236 532.979 79.0166 533.654 79.0166C534.094 79.0166 534.519 79.0409 534.929 79.0896C535.34 79.1284 535.716 79.1771 536.058 79.2355C536.401 79.2841 536.728 79.3473 537.041 79.4251L536.836 80.5486Z" fill="white"/>
<path d="M195.495 83.6075L271.374 83.6076" stroke="white" stroke-width="3"/>
<path d="M549.961 83.6466L632.071 83.6271" stroke="white" stroke-width="3"/>
<defs>
<clipPath id="clip0_49_4389">
<rect width="179" height="114" fill="white"/>
</clipPath>
</defs>
</svg>
