<svg width="206" height="75" viewBox="0 0 206 75" fill="none" xmlns="http://www.w3.org/2000/svg">
<path d="M193.544 11.9531C193.544 18.5547 187.324 23.9062 179.651 23.9062C171.978 23.9062 165.758 18.5547 165.758 11.9531C165.758 5.3516 171.978 0 179.651 0C187.324 0 193.544 5.3516 193.544 11.9531Z" fill="#101518"/>
<path d="M206 26.9531C206 34.3313 199.565 40.3125 191.628 40.3125C183.69 40.3125 177.256 34.3313 177.256 26.9531C177.256 19.5749 183.69 13.5938 191.628 13.5938C199.565 13.5938 206 19.5749 206 26.9531Z" fill="#101518"/>
<path d="M206 47.8125C206 55.0612 199.78 60.9375 192.107 60.9375C184.434 60.9375 178.214 55.0612 178.214 47.8125C178.214 40.5638 184.434 34.6875 192.107 34.6875C199.78 34.6875 206 40.5638 206 47.8125Z" fill="#101518"/>
<path d="M193.544 61.875C193.544 69.1237 187.11 75 179.172 75C171.235 75 164.8 69.1237 164.8 61.875C164.8 54.6263 171.235 48.75 179.172 48.75C187.11 48.75 193.544 54.6263 193.544 61.875Z" fill="#101518"/>
<path d="M33.0558 0H179.651V75H33.0558V0Z" fill="#101518"/>
<path d="M65.6326 37.5C65.6326 58.2107 50.9402 75 32.8163 75C14.6923 75 0 58.2107 0 37.5C0 16.7893 14.6923 0 32.8163 0C50.9402 0 65.6326 16.7893 65.6326 37.5Z" fill="#101518"/>
<path d="M162.884 26.7188H190.191V48.75H162.884V26.7188Z" fill="#101518"/>
<ellipse cx="8.85682" cy="6.80165" rx="8.85682" ry="6.80165" transform="matrix(0.984735 -0.174058 0.181556 0.983381 168.497 8.2395)" fill="#EBECEC"/>
<ellipse cx="8.85134" cy="6.80603" rx="8.85134" ry="6.80603" transform="matrix(0.97049 0.241142 -0.251213 0.967932 171.094 52.5271)" fill="#EBECEC"/>
<ellipse cx="8.84865" cy="6.80818" rx="8.84865" ry="6.80818" transform="matrix(0.963408 0.26804 -0.279061 0.960273 183.93 38.4646)" fill="#EBECEC"/>
<ellipse cx="8.85993" cy="6.79917" rx="8.85993" ry="6.79917" transform="matrix(0.992718 -0.12046 0.125739 0.992063 180.915 21.7982)" fill="#EBECEC"/>
<ellipse cx="165.04" cy="37.0753" rx="12.6953" ry="15" fill="#EBECEC"/>
<ellipse cx="153.063" cy="23.2472" rx="9.34186" ry="9.14063" fill="#EBECEC"/>
<ellipse cx="153.063" cy="50.4347" rx="9.34186" ry="9.14063" fill="#EBECEC"/>
<ellipse cx="10.368" cy="2.33053" rx="10.368" ry="2.33053" transform="matrix(0.840668 0.541552 -0.558258 0.829668 156.427 13.125)" fill="#EBECEC"/>
<ellipse cx="10.368" cy="2.33053" rx="10.368" ry="2.33053" transform="matrix(0.840668 -0.541552 -0.558258 -0.829668 156.427 60.5655)" fill="#EBECEC"/>
<path d="M146.514 26.9972C148.35 29.1066 150.921 35.9972 146.514 46.6847" stroke="#EBECEC" stroke-width="4"/>
<rect x="148.033" y="30.0441" width="8.14419" height="14.5312" fill="#EBECEC"/>
<path d="M20.1562 29.8672H25.4883C27.7695 29.8672 29.4961 30.1875 30.668 30.8281C31.8398 31.4688 32.4258 32.5938 32.4258 34.2031C32.4258 34.8516 32.3203 35.4375 32.1094 35.9609C31.9062 36.4844 31.6094 36.9141 31.2188 37.25C30.8281 37.5859 30.3516 37.8047 29.7891 37.9062V38.0234C30.3594 38.1406 30.875 38.3438 31.3359 38.6328C31.7969 38.9141 32.1641 39.3281 32.4375 39.875C32.7188 40.4141 32.8594 41.1328 32.8594 42.0312C32.8594 43.0703 32.6055 43.9609 32.0977 44.7031C31.5898 45.4453 30.8633 46.0156 29.918 46.4141C28.9805 46.8047 27.8633 47 26.5664 47H20.1562V29.8672ZM23.7891 36.6523H25.8984C26.9531 36.6523 27.6836 36.4883 28.0898 36.1602C28.4961 35.8242 28.6992 35.332 28.6992 34.6836C28.6992 34.0273 28.457 33.5586 27.9727 33.2773C27.4961 32.9883 26.7383 32.8438 25.6992 32.8438H23.7891V36.6523ZM23.7891 39.5352V44H26.1562C27.25 44 28.0117 43.7891 28.4414 43.3672C28.8711 42.9453 29.0859 42.3789 29.0859 41.668C29.0859 41.2461 28.9922 40.875 28.8047 40.5547C28.6172 40.2344 28.3008 39.9844 27.8555 39.8047C27.418 39.625 26.8125 39.5352 26.0391 39.5352H23.7891ZM47.9062 40.4258C47.9062 41.5195 47.7578 42.4883 47.4609 43.332C47.1719 44.1758 46.7461 44.8906 46.1836 45.4766C45.6289 46.0547 44.957 46.4922 44.168 46.7891C43.3867 47.0859 42.5039 47.2344 41.5195 47.2344C40.5977 47.2344 39.75 47.0859 38.9766 46.7891C38.2109 46.4922 37.543 46.0547 36.9727 45.4766C36.4102 44.8906 35.9727 44.1758 35.6602 43.332C35.3555 42.4883 35.2031 41.5195 35.2031 40.4258C35.2031 38.9727 35.4609 37.7422 35.9766 36.7344C36.4922 35.7266 37.2266 34.9609 38.1797 34.4375C39.1328 33.9141 40.2695 33.6523 41.5898 33.6523C42.8164 33.6523 43.9023 33.9141 44.8477 34.4375C45.8008 34.9609 46.5469 35.7266 47.0859 36.7344C47.6328 37.7422 47.9062 38.9727 47.9062 40.4258ZM38.8477 40.4258C38.8477 41.2852 38.9414 42.0078 39.1289 42.5938C39.3164 43.1797 39.6094 43.6211 40.0078 43.918C40.4062 44.2148 40.9258 44.3633 41.5664 44.3633C42.1992 44.3633 42.7109 44.2148 43.1016 43.918C43.5 43.6211 43.7891 43.1797 43.9688 42.5938C44.1562 42.0078 44.25 41.2852 44.25 40.4258C44.25 39.5586 44.1562 38.8398 43.9688 38.2695C43.7891 37.6914 43.5 37.2578 43.1016 36.9688C42.7031 36.6797 42.1836 36.5352 41.543 36.5352C40.5977 36.5352 39.9102 36.8594 39.4805 37.5078C39.0586 38.1562 38.8477 39.1289 38.8477 40.4258ZM62.7656 40.4258C62.7656 41.5195 62.6172 42.4883 62.3203 43.332C62.0312 44.1758 61.6055 44.8906 61.043 45.4766C60.4883 46.0547 59.8164 46.4922 59.0273 46.7891C58.2461 47.0859 57.3633 47.2344 56.3789 47.2344C55.457 47.2344 54.6094 47.0859 53.8359 46.7891C53.0703 46.4922 52.4023 46.0547 51.832 45.4766C51.2695 44.8906 50.832 44.1758 50.5195 43.332C50.2148 42.4883 50.0625 41.5195 50.0625 40.4258C50.0625 38.9727 50.3203 37.7422 50.8359 36.7344C51.3516 35.7266 52.0859 34.9609 53.0391 34.4375C53.9922 33.9141 55.1289 33.6523 56.4492 33.6523C57.6758 33.6523 58.7617 33.9141 59.707 34.4375C60.6602 34.9609 61.4062 35.7266 61.9453 36.7344C62.4922 37.7422 62.7656 38.9727 62.7656 40.4258ZM53.707 40.4258C53.707 41.2852 53.8008 42.0078 53.9883 42.5938C54.1758 43.1797 54.4688 43.6211 54.8672 43.918C55.2656 44.2148 55.7852 44.3633 56.4258 44.3633C57.0586 44.3633 57.5703 44.2148 57.9609 43.918C58.3594 43.6211 58.6484 43.1797 58.8281 42.5938C59.0156 42.0078 59.1094 41.2852 59.1094 40.4258C59.1094 39.5586 59.0156 38.8398 58.8281 38.2695C58.6484 37.6914 58.3594 37.2578 57.9609 36.9688C57.5625 36.6797 57.043 36.5352 56.4023 36.5352C55.457 36.5352 54.7695 36.8594 54.3398 37.5078C53.918 38.1562 53.707 39.1289 53.707 40.4258ZM69.293 28.7656V36.9219C69.293 37.4141 69.2734 37.9062 69.2344 38.3984C69.1953 38.8906 69.1523 39.3828 69.1055 39.875H69.1523C69.3945 39.5312 69.6406 39.1914 69.8906 38.8555C70.1484 38.5195 70.4219 38.1953 70.7109 37.8828L74.3789 33.8984H78.4102L73.207 39.582L78.7266 47H74.6016L70.8281 41.6914L69.293 42.9219V47H65.7188V28.7656H69.293ZM94.2773 33.6523C95.6758 33.6523 96.8008 34.0352 97.6523 34.8008C98.5039 35.5586 98.9297 36.7773 98.9297 38.457V47H95.3555V39.3477C95.3555 38.4102 95.1836 37.7031 94.8398 37.2266C94.5039 36.75 93.9727 36.5117 93.2461 36.5117C92.1523 36.5117 91.4062 36.8828 91.0078 37.625C90.6094 38.3672 90.4102 39.4375 90.4102 40.8359V47H86.8359V33.8984H89.5664L90.0469 35.5742H90.2461C90.5273 35.1211 90.875 34.7539 91.2891 34.4727C91.7109 34.1914 92.1758 33.9844 92.6836 33.8516C93.1992 33.7188 93.7305 33.6523 94.2773 33.6523ZM114.516 40.4258C114.516 41.5195 114.367 42.4883 114.07 43.332C113.781 44.1758 113.355 44.8906 112.793 45.4766C112.238 46.0547 111.566 46.4922 110.777 46.7891C109.996 47.0859 109.113 47.2344 108.129 47.2344C107.207 47.2344 106.359 47.0859 105.586 46.7891C104.82 46.4922 104.152 46.0547 103.582 45.4766C103.02 44.8906 102.582 44.1758 102.27 43.332C101.965 42.4883 101.812 41.5195 101.812 40.4258C101.812 38.9727 102.07 37.7422 102.586 36.7344C103.102 35.7266 103.836 34.9609 104.789 34.4375C105.742 33.9141 106.879 33.6523 108.199 33.6523C109.426 33.6523 110.512 33.9141 111.457 34.4375C112.41 34.9609 113.156 35.7266 113.695 36.7344C114.242 37.7422 114.516 38.9727 114.516 40.4258ZM105.457 40.4258C105.457 41.2852 105.551 42.0078 105.738 42.5938C105.926 43.1797 106.219 43.6211 106.617 43.918C107.016 44.2148 107.535 44.3633 108.176 44.3633C108.809 44.3633 109.32 44.2148 109.711 43.918C110.109 43.6211 110.398 43.1797 110.578 42.5938C110.766 42.0078 110.859 41.2852 110.859 40.4258C110.859 39.5586 110.766 38.8398 110.578 38.2695C110.398 37.6914 110.109 37.2578 109.711 36.9688C109.312 36.6797 108.793 36.5352 108.152 36.5352C107.207 36.5352 106.52 36.8594 106.09 37.5078C105.668 38.1562 105.457 39.1289 105.457 40.4258ZM128.238 47L127.23 42.418C127.176 42.1445 127.086 41.7422 126.961 41.2109C126.836 40.6719 126.699 40.0977 126.551 39.4883C126.41 38.8711 126.277 38.3008 126.152 37.7773C126.035 37.2539 125.949 36.8711 125.895 36.6289H125.789C125.734 36.8711 125.648 37.2539 125.531 37.7773C125.414 38.3008 125.281 38.8711 125.133 39.4883C124.992 40.1055 124.859 40.6875 124.734 41.2344C124.609 41.7734 124.516 42.1836 124.453 42.4648L123.398 47H119.555L115.828 33.8984H119.391L120.902 39.6992C121.004 40.1055 121.102 40.5898 121.195 41.1523C121.289 41.707 121.371 42.2461 121.441 42.7695C121.52 43.2852 121.578 43.6953 121.617 44H121.711C121.727 43.7734 121.758 43.4727 121.805 43.0977C121.859 42.7227 121.918 42.3359 121.98 41.9375C122.051 41.5312 122.113 41.168 122.168 40.8477C122.23 40.5195 122.277 40.2969 122.309 40.1797L123.926 33.8984H127.863L129.398 40.1797C129.453 40.4062 129.523 40.7656 129.609 41.2578C129.703 41.75 129.785 42.2578 129.855 42.7812C129.926 43.2969 129.965 43.7031 129.973 44H130.066C130.098 43.7344 130.152 43.3398 130.23 42.8164C130.309 42.293 130.398 41.7461 130.5 41.1758C130.609 40.5977 130.719 40.1055 130.828 39.6992L132.398 33.8984H135.902L132.129 47H128.238Z" fill="#EBECEC"/>
</svg>
