<svg width="637" height="122" viewBox="0 0 637 122" fill="none" xmlns="http://www.w3.org/2000/svg">
<path d="M49.664 26.936V35.864C49.664 38.432 49.736 40.184 49.88 41.12C50.048 42.056 50.276 42.644 50.564 42.884C51.116 43.34 51.992 43.568 53.192 43.568L53.264 44H43.616L43.688 43.568C44.864 43.568 45.728 43.352 46.28 42.92C46.736 42.56 47 41.384 47.072 39.392C47.12 38.6 47.144 37.424 47.144 35.864V20.636L37.064 43.64L26.66 24.164V35.792C26.66 38.192 26.768 39.932 26.984 41.012C27.224 42.068 27.596 42.764 28.1 43.1C28.604 43.412 29.444 43.568 30.62 43.568L30.692 44H21.836L21.908 43.568C22.796 43.568 23.456 43.508 23.888 43.388C24.344 43.244 24.728 42.884 25.04 42.308C25.352 41.732 25.544 40.964 25.616 40.004C25.712 39.044 25.76 37.64 25.76 35.792V26.972C25.76 25.124 25.712 23.72 25.616 22.76C25.544 21.8 25.352 21.032 25.04 20.456C24.728 19.88 24.344 19.532 23.888 19.412C23.456 19.268 22.796 19.196 21.908 19.196L21.836 18.8H26.66L37.784 39.788L46.964 18.8H53.264L53.192 19.196C51.992 19.196 51.116 19.424 50.564 19.88C49.964 20.384 49.664 22.736 49.664 26.936ZM83.9948 44H65.8508L65.9228 43.568C67.1228 43.568 67.9988 43.34 68.5508 42.884C69.1508 42.38 69.4508 40.04 69.4508 35.864V26.936C69.4508 24.368 69.3668 22.616 69.1988 21.68C69.0548 20.72 68.8388 20.12 68.5508 19.88C67.9988 19.424 67.1228 19.196 65.9228 19.196L65.8508 18.8H82.6628V23.984L82.2308 23.912C82.2308 22.304 81.3788 21.188 79.6748 20.564C77.9948 19.94 75.4148 19.628 71.9348 19.628V30.968C74.2388 30.968 75.8948 30.848 76.9028 30.608C77.9108 30.368 78.5588 30.008 78.8468 29.528C79.1348 29.024 79.2788 28.196 79.2788 27.044L79.6748 26.972V35.72L79.2788 35.648C79.2788 34.472 79.1348 33.644 78.8468 33.164C78.5588 32.684 77.9108 32.336 76.9028 32.12C75.8948 31.88 74.2388 31.76 71.9348 31.76V36.404C71.9348 38.948 72.0188 40.64 72.1868 41.48C72.3788 42.32 72.7868 42.884 73.4108 43.172C80.1788 43.172 83.5628 41.732 83.5628 38.852L83.9948 38.78V44ZM109.022 18.476C112.886 18.476 115.97 19.664 118.274 22.04C120.602 24.392 121.766 27.452 121.766 31.22C121.766 34.964 120.638 38.096 118.382 40.616C116.15 43.112 113.114 44.36 109.274 44.36C105.434 44.36 102.338 43.1 99.9864 40.58C97.6584 38.06 96.4944 34.928 96.4944 31.184C96.4944 27.416 97.6104 24.356 99.8424 22.004C102.098 19.652 105.158 18.476 109.022 18.476ZM109.238 43.532C112.31 43.532 114.638 42.428 116.222 40.22C117.83 37.988 118.634 35.06 118.634 31.436C118.634 27.812 117.794 24.884 116.114 22.652C114.434 20.42 112.058 19.304 108.986 19.304C105.938 19.304 103.61 20.408 102.002 22.616C100.418 24.824 99.6264 27.752 99.6264 31.4C99.6264 35.024 100.466 37.952 102.146 40.184C103.826 42.416 106.19 43.532 109.238 43.532ZM139.639 20.6C139.639 21.152 139.771 21.836 140.035 22.652C140.299 23.468 140.467 24.008 140.539 24.272C140.803 25.064 141.079 25.892 141.367 26.756L146.371 41.912L151.087 27.152C149.767 23.312 148.843 21.056 148.315 20.384C148.099 20.144 147.799 19.916 147.415 19.7C147.055 19.46 146.707 19.328 146.371 19.304C146.035 19.256 145.567 19.232 144.967 19.232L144.895 18.8H154.579L154.507 19.232C153.571 19.232 152.923 19.328 152.563 19.52C152.203 19.688 152.023 20.132 152.023 20.852C152.023 21.548 152.575 23.516 153.679 26.756L158.755 41.912L163.507 26.756C164.443 23.732 164.911 21.68 164.911 20.6C164.911 20.048 164.683 19.688 164.227 19.52C163.795 19.328 163.111 19.232 162.175 19.232L162.103 18.8H170.851L170.815 19.232C169.615 19.232 168.727 19.388 168.151 19.7C167.575 19.988 167.023 20.636 166.495 21.644C165.967 22.652 165.319 24.356 164.551 26.756L159.043 44.18H156.739L151.519 28.628L146.695 44.18H144.427L138.595 26.756C137.947 24.812 137.455 23.42 137.119 22.58C136.807 21.716 136.411 20.996 135.931 20.42C135.475 19.82 135.031 19.472 134.599 19.376C134.167 19.28 133.507 19.232 132.619 19.232L132.547 18.8H142.231L142.159 19.232C141.223 19.232 140.563 19.316 140.179 19.484C139.819 19.652 139.639 20.024 139.639 20.6ZM204.685 26.9V44.18H203.569L186.613 22.76V35.792C186.613 38.192 186.721 39.92 186.937 40.976C187.153 42.032 187.513 42.728 188.017 43.064C188.521 43.4 189.349 43.568 190.501 43.568L190.573 44H181.717L181.789 43.568C182.941 43.568 183.769 43.4 184.273 43.064C184.777 42.728 185.137 42.032 185.353 40.976C185.593 39.92 185.713 38.192 185.713 35.792V26.9C185.713 24.5 185.593 22.784 185.353 21.752C185.137 20.696 184.777 20.012 184.273 19.7C183.793 19.364 182.965 19.196 181.789 19.196L181.717 18.8H186.613L203.785 40.22V26.9C203.785 24.524 203.665 22.808 203.425 21.752C203.209 20.696 202.849 20.012 202.345 19.7C201.841 19.364 201.001 19.196 199.825 19.196L199.753 18.8H208.681L208.609 19.196C207.433 19.196 206.593 19.364 206.089 19.7C205.585 20.012 205.225 20.696 205.009 21.752C204.793 22.808 204.685 24.524 204.685 26.9ZM227.01 26.936V35.864C227.01 38.432 227.082 40.184 227.226 41.12C227.394 42.056 227.622 42.644 227.91 42.884C228.462 43.34 229.338 43.568 230.538 43.568L230.61 44H220.89L220.962 43.568C221.562 43.568 222.03 43.544 222.366 43.496C222.702 43.448 223.014 43.316 223.302 43.1C223.614 42.884 223.83 42.644 223.95 42.38C224.094 42.092 224.214 41.624 224.31 40.976C224.43 40.136 224.49 38.432 224.49 35.864V26.936C224.49 24.44 224.418 22.7 224.274 21.716C224.13 20.732 223.914 20.12 223.626 19.88C223.05 19.424 222.162 19.196 220.962 19.196L220.89 18.8H230.61L230.538 19.196C229.338 19.196 228.462 19.424 227.91 19.88C227.31 20.384 227.01 22.736 227.01 26.936ZM244.366 36.368C244.366 38.696 244.93 40.472 246.058 41.696C247.21 42.92 248.614 43.532 250.27 43.532C251.926 43.532 253.282 43.136 254.338 42.344C255.394 41.528 255.922 40.256 255.922 38.528C255.922 36.968 255.094 35.576 253.438 34.352C252.718 33.824 251.914 33.308 251.026 32.804C250.138 32.276 249.25 31.736 248.362 31.184C247.474 30.632 246.67 30.056 245.95 29.456C244.294 28.064 243.466 26.444 243.466 24.596C243.466 22.724 244.138 21.236 245.482 20.132C246.85 19.028 248.65 18.476 250.882 18.476C253.138 18.476 255.226 18.968 257.146 19.952C257.146 21.152 256.966 23.216 256.606 26.144L256.066 26C256.066 23.744 255.514 22.064 254.41 20.96C253.306 19.832 252.034 19.268 250.594 19.268C249.178 19.268 248.038 19.688 247.174 20.528C246.31 21.344 245.878 22.316 245.878 23.444C245.878 24.572 246.178 25.544 246.778 26.36C247.402 27.152 248.17 27.812 249.082 28.34C250.018 28.868 251.026 29.456 252.106 30.104C253.186 30.728 254.182 31.352 255.094 31.976C256.03 32.576 256.798 33.368 257.398 34.352C258.022 35.336 258.334 36.44 258.334 37.664C258.334 39.872 257.542 41.54 255.958 42.668C254.398 43.796 252.514 44.36 250.306 44.36C249.082 44.36 247.822 44.168 246.526 43.784C245.254 43.4 244.21 42.836 243.394 42.092C243.394 40.556 243.538 38.612 243.826 36.26L244.366 36.368ZM269.868 18.8H290.604V23.984L290.244 23.912C290.244 20.984 287.34 19.52 281.532 19.52V35.864C281.532 39.416 281.736 41.576 282.144 42.344C282.288 42.632 282.54 42.884 282.9 43.1C283.26 43.316 283.644 43.448 284.052 43.496C284.46 43.544 285.024 43.568 285.744 43.568L285.816 44H274.728L274.8 43.568C275.52 43.568 276.084 43.556 276.492 43.532C276.924 43.484 277.308 43.34 277.644 43.1C278.004 42.86 278.256 42.608 278.4 42.344C278.568 42.08 278.712 41.612 278.832 40.94C278.952 40.124 279.012 38.432 279.012 35.864V19.52C273.204 19.52 270.3 20.984 270.3 23.912L269.868 23.984V18.8ZM320.356 44C319.756 44 319.156 43.7 318.556 43.1C317.98 42.476 317.452 41.708 316.972 40.796C316.516 39.884 315.976 38.9 315.352 37.844C314.728 36.764 314.104 35.756 313.48 34.82C312.856 33.884 312.064 33.092 311.104 32.444C310.144 31.796 309.124 31.448 308.044 31.4V35.864C308.044 38.456 308.116 40.22 308.26 41.156C308.428 42.068 308.656 42.644 308.944 42.884C309.52 43.34 310.408 43.568 311.608 43.568L311.68 44H302.032L302.104 43.568C303.28 43.568 304.144 43.352 304.696 42.92C305.152 42.56 305.416 41.384 305.488 39.392C305.536 38.6 305.56 37.424 305.56 35.864V26.756C305.56 24.092 305.488 22.328 305.344 21.464C305.2 20.6 304.984 20.06 304.696 19.844C304.144 19.436 303.28 19.232 302.104 19.232L302.032 18.8H310.384C316.432 18.8 319.456 20.84 319.456 24.92C319.456 26.672 318.832 28.148 317.584 29.348C316.36 30.524 314.872 31.208 313.12 31.4C314.872 32.432 316.492 34.328 317.98 37.088C318.556 38.168 319.168 39.2 319.816 40.184C321.232 42.44 323.056 43.568 325.288 43.568L325.36 44H320.356ZM308.044 19.628V30.68H310.312C312.136 30.68 313.648 30.212 314.848 29.276C316.048 28.34 316.648 26.948 316.648 25.1C316.648 21.452 314.56 19.628 310.384 19.628H308.044ZM344.979 35.864C344.979 39.416 345.183 41.576 345.591 42.344C345.735 42.632 345.987 42.884 346.347 43.1C346.707 43.316 347.091 43.448 347.499 43.496C347.907 43.544 348.471 43.568 349.191 43.568L349.263 44H338.175L338.247 43.568C338.967 43.568 339.531 43.556 339.939 43.532C340.371 43.484 340.755 43.34 341.091 43.1C341.451 42.86 341.703 42.608 341.847 42.344C342.015 42.08 342.147 41.612 342.243 40.94C342.387 40.124 342.459 38.432 342.459 35.864V33.596L338.427 26.792C337.299 24.872 336.459 23.48 335.907 22.616C335.355 21.728 334.791 20.996 334.215 20.42C333.639 19.844 333.159 19.508 332.775 19.412C332.415 19.292 331.875 19.232 331.155 19.232L331.083 18.8H340.047L339.975 19.232C339.183 19.232 338.619 19.292 338.283 19.412C337.971 19.508 337.815 19.748 337.815 20.132C337.815 20.564 337.959 21.056 338.247 21.608C338.559 22.16 338.763 22.532 338.859 22.724C338.955 22.916 339.111 23.204 339.327 23.588C339.543 23.948 339.723 24.248 339.867 24.488C340.515 25.64 340.959 26.408 341.199 26.792L344.439 32.372L347.211 26.792C348.867 23.384 349.695 21.272 349.695 20.456C349.695 19.928 349.515 19.592 349.155 19.448C348.819 19.304 348.195 19.232 347.283 19.232L347.211 18.8H355.275L355.203 19.232C354.075 19.232 353.127 19.424 352.359 19.808C351.783 20.096 350.967 21.236 349.911 23.228C349.503 23.996 348.903 25.184 348.111 26.792L344.979 33.2V35.864ZM396.952 18.476C400.816 18.476 403.9 19.664 406.204 22.04C408.532 24.392 409.696 27.452 409.696 31.22C409.696 34.964 408.568 38.096 406.312 40.616C404.08 43.112 401.044 44.36 397.204 44.36C393.364 44.36 390.268 43.1 387.916 40.58C385.588 38.06 384.424 34.928 384.424 31.184C384.424 27.416 385.54 24.356 387.772 22.004C390.028 19.652 393.088 18.476 396.952 18.476ZM397.168 43.532C400.24 43.532 402.568 42.428 404.152 40.22C405.76 37.988 406.564 35.06 406.564 31.436C406.564 27.812 405.724 24.884 404.044 22.652C402.364 20.42 399.988 19.304 396.916 19.304C393.868 19.304 391.54 20.408 389.932 22.616C388.348 24.824 387.556 27.752 387.556 31.4C387.556 35.024 388.396 37.952 390.076 40.184C391.756 42.416 394.12 43.532 397.168 43.532ZM438.585 18.8V23.984L438.189 23.912C438.189 22.328 437.337 21.224 435.633 20.6C433.953 19.952 431.385 19.628 427.929 19.628V30.968C429.321 30.92 430.401 30.848 431.169 30.752C431.961 30.632 432.561 30.404 432.969 30.068C433.377 29.708 433.629 29.324 433.725 28.916C433.821 28.508 433.869 27.884 433.869 27.044L434.301 26.972V35.72L433.869 35.648C433.869 34.544 433.749 33.752 433.509 33.272C433.293 32.792 432.765 32.432 431.925 32.192C431.109 31.952 429.777 31.808 427.929 31.76V35.864C427.929 39.272 428.085 41.264 428.397 41.84C428.541 42.152 428.697 42.452 428.865 42.74C429.057 43.004 429.333 43.184 429.693 43.28C430.461 43.472 431.397 43.568 432.501 43.568L432.573 44H421.773L421.845 43.568C423.045 43.568 423.921 43.34 424.473 42.884C425.073 42.38 425.373 40.04 425.373 35.864V26.936C425.373 24.368 425.289 22.616 425.121 21.68C424.977 20.72 424.761 20.12 424.473 19.88C423.921 19.424 423.045 19.196 421.845 19.196L421.773 18.8H438.585ZM496.043 26.936V35.864C496.043 38.432 496.115 40.184 496.259 41.12C496.427 42.056 496.655 42.644 496.943 42.884C497.495 43.34 498.371 43.568 499.571 43.568L499.643 44H489.995L490.067 43.568C491.243 43.568 492.107 43.352 492.659 42.92C493.115 42.56 493.379 41.384 493.451 39.392C493.499 38.6 493.523 37.424 493.523 35.864V20.636L483.443 43.64L473.039 24.164V35.792C473.039 38.192 473.147 39.932 473.363 41.012C473.603 42.068 473.975 42.764 474.479 43.1C474.983 43.412 475.823 43.568 476.999 43.568L477.071 44H468.215L468.287 43.568C469.175 43.568 469.835 43.508 470.267 43.388C470.723 43.244 471.107 42.884 471.419 42.308C471.731 41.732 471.923 40.964 471.995 40.004C472.091 39.044 472.139 37.64 472.139 35.792V26.972C472.139 25.124 472.091 23.72 471.995 22.76C471.923 21.8 471.731 21.032 471.419 20.456C471.107 19.88 470.723 19.532 470.267 19.412C469.835 19.268 469.175 19.196 468.287 19.196L468.215 18.8H473.039L484.163 39.788L493.343 18.8H499.643L499.571 19.196C498.371 19.196 497.495 19.424 496.943 19.88C496.343 20.384 496.043 22.736 496.043 26.936ZM530.374 44H512.23L512.302 43.568C513.502 43.568 514.378 43.34 514.93 42.884C515.53 42.38 515.83 40.04 515.83 35.864V26.936C515.83 24.368 515.746 22.616 515.578 21.68C515.434 20.72 515.218 20.12 514.93 19.88C514.378 19.424 513.502 19.196 512.302 19.196L512.23 18.8H529.042V23.984L528.61 23.912C528.61 22.304 527.758 21.188 526.054 20.564C524.374 19.94 521.794 19.628 518.314 19.628V30.968C520.618 30.968 522.274 30.848 523.282 30.608C524.29 30.368 524.938 30.008 525.226 29.528C525.514 29.024 525.658 28.196 525.658 27.044L526.054 26.972V35.72L525.658 35.648C525.658 34.472 525.514 33.644 525.226 33.164C524.938 32.684 524.29 32.336 523.282 32.12C522.274 31.88 520.618 31.76 518.314 31.76V36.404C518.314 38.948 518.398 40.64 518.566 41.48C518.758 42.32 519.166 42.884 519.79 43.172C526.558 43.172 529.942 41.732 529.942 38.852L530.374 38.78V44ZM555.401 18.476C559.265 18.476 562.349 19.664 564.653 22.04C566.981 24.392 568.145 27.452 568.145 31.22C568.145 34.964 567.017 38.096 564.761 40.616C562.529 43.112 559.493 44.36 555.653 44.36C551.813 44.36 548.717 43.1 546.365 40.58C544.037 38.06 542.873 34.928 542.873 31.184C542.873 27.416 543.989 24.356 546.221 22.004C548.477 19.652 551.537 18.476 555.401 18.476ZM555.617 43.532C558.689 43.532 561.017 42.428 562.601 40.22C564.209 37.988 565.013 35.06 565.013 31.436C565.013 27.812 564.173 24.884 562.493 22.652C560.813 20.42 558.437 19.304 555.365 19.304C552.317 19.304 549.989 20.408 548.381 22.616C546.797 24.824 546.005 27.752 546.005 31.4C546.005 35.024 546.845 37.952 548.525 40.184C550.205 42.416 552.569 43.532 555.617 43.532ZM586.018 20.6C586.018 21.152 586.15 21.836 586.414 22.652C586.678 23.468 586.846 24.008 586.918 24.272C587.182 25.064 587.458 25.892 587.746 26.756L592.75 41.912L597.466 27.152C596.146 23.312 595.222 21.056 594.694 20.384C594.478 20.144 594.178 19.916 593.794 19.7C593.434 19.46 593.086 19.328 592.75 19.304C592.414 19.256 591.946 19.232 591.346 19.232L591.274 18.8H600.958L600.886 19.232C599.95 19.232 599.302 19.328 598.942 19.52C598.582 19.688 598.402 20.132 598.402 20.852C598.402 21.548 598.954 23.516 600.058 26.756L605.134 41.912L609.886 26.756C610.822 23.732 611.29 21.68 611.29 20.6C611.29 20.048 611.062 19.688 610.606 19.52C610.174 19.328 609.49 19.232 608.554 19.232L608.482 18.8H617.23L617.194 19.232C615.994 19.232 615.106 19.388 614.53 19.7C613.954 19.988 613.402 20.636 612.874 21.644C612.346 22.652 611.698 24.356 610.93 26.756L605.422 44.18H603.118L597.898 28.628L593.074 44.18H590.806L584.974 26.756C584.326 24.812 583.834 23.42 583.498 22.58C583.186 21.716 582.79 20.996 582.31 20.42C581.854 19.82 581.41 19.472 580.978 19.376C580.546 19.28 579.886 19.232 578.998 19.232L578.926 18.8H588.61L588.538 19.232C587.602 19.232 586.942 19.316 586.558 19.484C586.198 19.652 586.018 20.024 586.018 20.6Z" fill="black"/>
<path d="M158.04 93.28C157.707 93.1733 157.353 93.08 156.98 93C156.607 92.9067 156.193 92.8333 155.74 92.78C155.3 92.7133 154.833 92.68 154.34 92.68C153.54 92.68 152.86 92.8533 152.3 93.2C151.74 93.5467 151.28 93.9933 150.92 94.54C150.573 95.0733 150.32 95.6733 150.16 96.34C150 97.0067 149.92 97.6667 149.92 98.32C149.92 99.1467 150.033 99.9 150.26 100.58C150.5 101.247 150.82 101.82 151.22 102.3C151.633 102.767 152.107 103.127 152.64 103.38C153.187 103.633 153.76 103.76 154.36 103.76C154.92 103.76 155.433 103.733 155.9 103.68C156.367 103.613 156.767 103.547 157.1 103.48C157.487 103.4 157.833 103.307 158.14 103.2L158.48 104.62C158.12 104.74 157.72 104.847 157.28 104.94C156.907 105.02 156.473 105.093 155.98 105.16C155.487 105.227 154.947 105.26 154.36 105.26C153.307 105.26 152.38 105.087 151.58 104.74C150.793 104.393 150.133 103.913 149.6 103.3C149.08 102.673 148.687 101.94 148.42 101.1C148.153 100.247 148.02 99.3133 148.02 98.3C148.02 97.14 148.18 96.12 148.5 95.24C148.82 94.3467 149.26 93.6 149.82 93C150.38 92.4 151.047 91.9467 151.82 91.64C152.593 91.3333 153.44 91.18 154.36 91.18C154.92 91.18 155.44 91.2133 155.92 91.28C156.413 91.3333 156.86 91.4067 157.26 91.5C157.673 91.5933 158.053 91.6933 158.4 91.8L158.04 93.28ZM168.208 91.36H170.288L174.968 105H173.228L172.028 101.36H166.488L165.268 105H163.528L168.208 91.36ZM171.488 99.76L169.288 92.96H169.228L167.008 99.76H171.488ZM183.018 92.92H178.738V91.36H188.978V92.92H184.698V105H183.018V92.92ZM203.647 91.36H212.007V92.9H205.327V97.26H211.527V98.76H205.327V105H203.647V91.36ZM218.467 91.36H221.827C222.56 91.36 223.227 91.4267 223.827 91.56C224.44 91.68 224.96 91.8933 225.387 92.2C225.814 92.4933 226.14 92.8867 226.367 93.38C226.594 93.8733 226.707 94.4933 226.707 95.24C226.694 96.0667 226.554 96.74 226.287 97.26C226.02 97.7667 225.694 98.18 225.307 98.5C224.92 98.8067 224.474 99.0333 223.967 99.18V99.22C224.02 99.2733 224.1 99.3733 224.207 99.52C224.327 99.6533 224.427 99.7733 224.507 99.88L228.367 105H226.387L222.427 99.58H220.147V105H218.467V91.36ZM225.007 95.52C225.007 94.96 224.934 94.5067 224.787 94.16C224.654 93.8 224.447 93.5267 224.167 93.34C223.9 93.1533 223.567 93.0267 223.167 92.96C222.767 92.8933 222.314 92.86 221.807 92.86H220.147V98.08H222.127C222.647 98.08 223.087 98.0133 223.447 97.88C223.807 97.7467 224.1 97.5667 224.327 97.34C224.554 97.1 224.72 96.8267 224.827 96.52C224.934 96.2133 224.994 95.88 225.007 95.52ZM234.049 91.36H235.729V105H234.049V91.36ZM243.244 91.36H251.604V92.9H244.924V97.26H251.124V98.76H244.924V103.46H251.804V105H243.244V91.36ZM258.533 91.36H260.133L267.293 102.18H267.333C267.307 101.793 267.287 101.38 267.273 100.94C267.247 100.567 267.227 100.14 267.213 99.66C267.213 99.1667 267.213 98.6667 267.213 98.16V91.36H268.813V105H267.213L260.053 94.14H260.013C260.027 94.54 260.047 94.96 260.073 95.4C260.087 95.7867 260.1 96.22 260.113 96.7C260.127 97.18 260.133 97.6733 260.133 98.18V105H258.533V91.36ZM278.022 103.46H280.722C281.455 103.46 282.142 103.367 282.782 103.18C283.435 102.993 284.002 102.693 284.482 102.28C284.975 101.853 285.362 101.3 285.642 100.62C285.922 99.94 286.062 99.1133 286.062 98.14C286.062 97.2333 285.935 96.4533 285.682 95.8C285.429 95.1333 285.069 94.5867 284.602 94.16C284.149 93.7333 283.589 93.42 282.922 93.22C282.269 93.0067 281.535 92.9 280.722 92.9H278.022V103.46ZM276.342 91.36H280.722C281.802 91.36 282.775 91.4933 283.642 91.76C284.522 92.0267 285.275 92.44 285.902 93C286.529 93.56 287.009 94.2667 287.342 95.12C287.689 95.9733 287.862 96.98 287.862 98.14C287.862 99.3133 287.675 100.333 287.302 101.2C286.929 102.053 286.422 102.767 285.782 103.34C285.142 103.9 284.389 104.32 283.522 104.6C282.655 104.867 281.722 105 280.722 105H276.342V91.36ZM294.639 91.36H296.319V103.4H302.519V105H294.639V91.36ZM309.955 100.04L305.595 91.36H307.455L310.795 97.98L314.155 91.36H316.015L311.655 100.04V105H309.955V100.04ZM339.864 93.28C339.531 93.1733 339.178 93.08 338.804 93C338.431 92.9067 338.018 92.8333 337.564 92.78C337.124 92.7133 336.658 92.68 336.164 92.68C335.364 92.68 334.684 92.8533 334.124 93.2C333.564 93.5467 333.104 93.9933 332.744 94.54C332.398 95.0733 332.144 95.6733 331.984 96.34C331.824 97.0067 331.744 97.6667 331.744 98.32C331.744 99.1467 331.858 99.9 332.084 100.58C332.324 101.247 332.644 101.82 333.044 102.3C333.458 102.767 333.931 103.127 334.464 103.38C335.011 103.633 335.584 103.76 336.184 103.76C336.744 103.76 337.258 103.733 337.724 103.68C338.191 103.613 338.591 103.547 338.924 103.48C339.311 103.4 339.658 103.307 339.964 103.2L340.304 104.62C339.944 104.74 339.544 104.847 339.104 104.94C338.731 105.02 338.298 105.093 337.804 105.16C337.311 105.227 336.771 105.26 336.184 105.26C335.131 105.26 334.204 105.087 333.404 104.74C332.618 104.393 331.958 103.913 331.424 103.3C330.904 102.673 330.511 101.94 330.244 101.1C329.978 100.247 329.844 99.3133 329.844 98.3C329.844 97.14 330.004 96.12 330.324 95.24C330.644 94.3467 331.084 93.6 331.644 93C332.204 92.4 332.871 91.9467 333.644 91.64C334.418 91.3333 335.264 91.18 336.184 91.18C336.744 91.18 337.264 91.2133 337.744 91.28C338.238 91.3333 338.684 91.4067 339.084 91.5C339.498 91.5933 339.878 91.6933 340.224 91.8L339.864 93.28ZM345.622 98.18C345.622 96.8867 345.822 95.7933 346.222 94.9C346.635 94.0067 347.155 93.2867 347.782 92.74C348.422 92.1933 349.128 91.8 349.902 91.56C350.688 91.3067 351.455 91.18 352.202 91.18C352.948 91.18 353.708 91.2867 354.482 91.5C355.268 91.7 355.975 92.0667 356.602 92.6C357.242 93.12 357.762 93.8333 358.162 94.74C358.575 95.6467 358.782 96.8 358.782 98.2C358.782 99.5067 358.575 100.607 358.162 101.5C357.762 102.393 357.242 103.12 356.602 103.68C355.975 104.24 355.268 104.647 354.482 104.9C353.708 105.14 352.948 105.26 352.202 105.26C351.455 105.26 350.688 105.14 349.902 104.9C349.128 104.66 348.422 104.267 347.782 103.72C347.155 103.173 346.635 102.447 346.222 101.54C345.822 100.633 345.622 99.5133 345.622 98.18ZM356.882 98.28C356.882 96.48 356.462 95.1133 355.622 94.18C354.795 93.2467 353.682 92.78 352.282 92.78C351.575 92.78 350.928 92.8933 350.342 93.12C349.768 93.3333 349.268 93.66 348.842 94.1C348.428 94.54 348.102 95.0933 347.862 95.76C347.635 96.4133 347.522 97.1867 347.522 98.08C347.522 99.88 347.935 101.26 348.762 102.22C349.602 103.18 350.722 103.66 352.122 103.66C352.815 103.66 353.455 103.553 354.042 103.34C354.628 103.113 355.128 102.773 355.542 102.32C355.968 101.867 356.295 101.307 356.522 100.64C356.762 99.9733 356.882 99.1867 356.882 98.28ZM365.037 99.12H370.377V100.6H365.037V99.12ZM375.896 91.36H377.596L380.236 103.4H380.256L383.756 91.36H385.876L389.336 103.4H389.356L391.976 91.36H393.676L390.536 105H388.416L384.816 92.98H384.796L381.176 105H379.056L375.896 91.36ZM399.282 98.18C399.282 96.8867 399.482 95.7933 399.882 94.9C400.295 94.0067 400.815 93.2867 401.442 92.74C402.082 92.1933 402.788 91.8 403.562 91.56C404.348 91.3067 405.115 91.18 405.862 91.18C406.608 91.18 407.368 91.2867 408.142 91.5C408.928 91.7 409.635 92.0667 410.262 92.6C410.902 93.12 411.422 93.8333 411.822 94.74C412.235 95.6467 412.442 96.8 412.442 98.2C412.442 99.5067 412.235 100.607 411.822 101.5C411.422 102.393 410.902 103.12 410.262 103.68C409.635 104.24 408.928 104.647 408.142 104.9C407.368 105.14 406.608 105.26 405.862 105.26C405.115 105.26 404.348 105.14 403.562 104.9C402.788 104.66 402.082 104.267 401.442 103.72C400.815 103.173 400.295 102.447 399.882 101.54C399.482 100.633 399.282 99.5133 399.282 98.18ZM410.542 98.28C410.542 96.48 410.122 95.1133 409.282 94.18C408.455 93.2467 407.342 92.78 405.942 92.78C405.235 92.78 404.588 92.8933 404.002 93.12C403.428 93.3333 402.928 93.66 402.502 94.1C402.088 94.54 401.762 95.0933 401.522 95.76C401.295 96.4133 401.182 97.1867 401.182 98.08C401.182 99.88 401.595 101.26 402.422 102.22C403.262 103.18 404.382 103.66 405.782 103.66C406.475 103.66 407.115 103.553 407.702 103.34C408.288 103.113 408.788 102.773 409.202 102.32C409.628 101.867 409.955 101.307 410.182 100.64C410.422 99.9733 410.542 99.1867 410.542 98.28ZM419.217 91.36H422.577C423.31 91.36 423.977 91.4267 424.577 91.56C425.19 91.68 425.71 91.8933 426.137 92.2C426.564 92.4933 426.89 92.8867 427.117 93.38C427.344 93.8733 427.457 94.4933 427.457 95.24C427.444 96.0667 427.304 96.74 427.037 97.26C426.77 97.7667 426.444 98.18 426.057 98.5C425.67 98.8067 425.224 99.0333 424.717 99.18V99.22C424.77 99.2733 424.85 99.3733 424.957 99.52C425.077 99.6533 425.177 99.7733 425.257 99.88L429.117 105H427.137L423.177 99.58H420.897V105H419.217V91.36ZM425.757 95.52C425.757 94.96 425.684 94.5067 425.537 94.16C425.404 93.8 425.197 93.5267 424.917 93.34C424.65 93.1533 424.317 93.0267 423.917 92.96C423.517 92.8933 423.064 92.86 422.557 92.86H420.897V98.08H422.877C423.397 98.08 423.837 98.0133 424.197 97.88C424.557 97.7467 424.85 97.5667 425.077 97.34C425.304 97.1 425.47 96.8267 425.577 96.52C425.684 96.2133 425.744 95.88 425.757 95.52ZM434.799 91.36H436.479V97.66L442.199 91.36H444.299L439.059 97.08L445.099 105H442.999L437.899 98.32L436.479 99.88V105H434.799V91.36ZM450.713 91.36H452.393V105H450.713V91.36ZM459.908 91.36H461.508L468.668 102.18H468.708C468.682 101.793 468.662 101.38 468.648 100.94C468.622 100.567 468.602 100.14 468.588 99.66C468.588 99.1667 468.588 98.6667 468.588 98.16V91.36H470.188V105H468.588L461.428 94.14H461.388C461.402 94.54 461.422 94.96 461.448 95.4C461.462 95.7867 461.475 96.22 461.488 96.7C461.502 97.18 461.508 97.6733 461.508 98.18V105H459.908V91.36ZM488.097 93.28C487.51 93.16 486.884 93.0467 486.217 92.94C485.564 92.8333 484.804 92.7667 483.937 92.74C483.057 92.7533 482.297 92.8867 481.657 93.14C481.017 93.3933 480.49 93.76 480.077 94.24C479.677 94.7067 479.377 95.2667 479.177 95.92C478.977 96.5733 478.877 97.2933 478.877 98.08C478.877 99.0933 479.004 99.96 479.257 100.68C479.524 101.4 479.884 101.993 480.337 102.46C480.804 102.913 481.344 103.247 481.957 103.46C482.57 103.673 483.23 103.78 483.937 103.78C484.39 103.78 484.797 103.753 485.157 103.7C485.53 103.647 485.85 103.587 486.117 103.52C486.397 103.44 486.65 103.353 486.877 103.26V99.6H484.377V98.1H488.577V104.08C488.11 104.387 487.464 104.667 486.637 104.92C485.824 105.16 484.924 105.273 483.937 105.26C483.03 105.26 482.157 105.153 481.317 104.94C480.49 104.727 479.75 104.353 479.097 103.82C478.457 103.273 477.944 102.533 477.557 101.6C477.17 100.667 476.977 99.4867 476.977 98.06C476.977 96.9 477.157 95.8933 477.517 95.04C477.877 94.1733 478.364 93.46 478.977 92.9C479.604 92.3267 480.324 91.9 481.137 91.62C481.964 91.3267 482.837 91.18 483.757 91.18C484.357 91.18 484.937 91.2133 485.497 91.28C486.057 91.3333 486.57 91.4 487.037 91.48C487.504 91.5467 487.95 91.6333 488.377 91.74L488.097 93.28Z" fill="black"/>
<path d="M22.5 97.4732L126.001 97.4733" stroke="black"/>
<path d="M506 97.5267L618.001 97.5" stroke="black"/>
</svg>
