<svg width="490" height="312" viewBox="0 0 490 312" fill="none" xmlns="http://www.w3.org/2000/svg">
<g clip-path="url(#clip0_41_1972)">
<path d="M190 166.298V184.798" stroke="black" stroke-width="4" stroke-linecap="round"/>
<path d="M190 184.798L183.5 191.798" stroke="black" stroke-width="4" stroke-linecap="round"/>
<path d="M190 184.798L197 191.798" stroke="black" stroke-width="4" stroke-linecap="round"/>
<path d="M35 308H429" stroke="black" stroke-width="8" stroke-linecap="round"/>
<path d="M34.1633 308C30.6574 271.891 27.1163 189.138 41 147" stroke="black" stroke-width="8" stroke-linecap="round"/>
<path d="M346 173.5L369.5 164.298M346 188.798H376.5M348 205L374 213.298" stroke="black" stroke-width="8" stroke-linecap="round"/>
<path d="M347.5 267.798C368.5 247.298 389.548 220.798 421.5 159.798C436.167 131.798 484.5 134.798 485.5 192.798C486.3 239.198 448.833 288.798 430 307.798" stroke="black" stroke-width="8" stroke-linecap="round"/>
<path d="M340 150.798C342.5 169.298 352 205.798 345.411 293.298" stroke="black" stroke-width="8" stroke-linecap="round"/>
<path d="M31 204L6 213" stroke="black" stroke-width="8" stroke-linecap="round"/>
<path d="M226.5 58.2979C214.5 93.4645 197.7 173.998 224.5 212.798C258 261.298 326 256.298 348 227.798" stroke="black" stroke-width="5" stroke-linecap="round"/>
<path d="M41.1202 146.482C40.2844 104.445 43.427 17.6585 62.6837 6.80598C86.7545 -6.75971 133.893 60.5662 129.38 60.0638M110.825 71.1173C124.867 56.5475 217.64 42.9818 268.79 71.1173M340 150C339.164 107.963 336.49 3.12104 312.92 5.76128C277.315 9.74973 255.251 53.9308 249.734 60.0638" stroke="black" stroke-width="8" stroke-linecap="round"/>
<path d="M32 188H4" stroke="black" stroke-width="8" stroke-linecap="round"/>
<path d="M34 174L10 163" stroke="black" stroke-width="8" stroke-linecap="round"/>
<path d="M78 160C83.5696 125.316 142.304 105.127 158 160" stroke="black" stroke-width="5" stroke-linecap="round"/>
<path d="M78 160C92.5912 199.188 141.899 203.424 158 160" stroke="black" stroke-width="5" stroke-linecap="round"/>
<path d="M227 160C232.5 125.316 290.5 105.127 306 160" stroke="black" stroke-width="5" stroke-linecap="round"/>
<path d="M227 160C241.409 197.924 290.101 202.024 306 160" stroke="black" stroke-width="5" stroke-linecap="round"/>
<path fill-rule="evenodd" clip-rule="evenodd" d="M150 156.798C150 169.777 139.479 180.298 126.5 180.298C113.521 180.298 103 169.777 103 156.798C103 143.819 113.521 133.298 126.5 133.298C139.479 133.298 150 143.819 150 156.798ZM122 145.298C122 147.507 120.209 149.298 118 149.298C115.791 149.298 114 147.507 114 145.298C114 143.089 115.791 141.298 118 141.298C120.209 141.298 122 143.089 122 145.298Z" fill="black"/>
<path fill-rule="evenodd" clip-rule="evenodd" d="M299 156.798C299 169.777 288.479 180.298 275.5 180.298C262.521 180.298 252 169.777 252 156.798C252 143.819 262.521 133.298 275.5 133.298C288.479 133.298 299 143.819 299 156.798ZM271 145.298C271 147.507 269.209 149.298 267 149.298C264.791 149.298 263 147.507 263 145.298C263 143.089 264.791 141.298 267 141.298C269.209 141.298 271 143.089 271 145.298Z" fill="black"/>
<path d="M64 221.298C73.3888 221.298 81 213.687 81 204.298C81 194.909 73.3888 187.298 64 187.298C54.6112 187.298 47 194.909 47 204.298C47 213.687 54.6112 221.298 64 221.298Z" fill="black"/>
<path d="M317 222.298C326.389 222.298 334 214.687 334 205.298C334 195.909 326.389 188.298 317 188.298C307.611 188.298 300 195.909 300 205.298C300 214.687 307.611 222.298 317 222.298Z" fill="black"/>
<path d="M184.881 166.548C187.892 169.486 192.68 169.538 195.754 166.666L195.881 166.548L197.964 164.601C200.305 162.414 202.267 159.854 203.771 157.025C205.007 154.698 203.603 151.843 201.005 151.402L197.823 150.862C195.612 150.487 193.372 150.298 191.129 150.298H190.261H189.025C186.679 150.298 184.339 150.504 182.03 150.914L179.889 151.294C177.148 151.781 175.73 154.848 177.135 157.251L177.453 157.796C178.812 160.12 180.476 162.251 182.403 164.13L184.881 166.548Z" fill="black"/>
<path d="M97.0857 51.8081C100.336 55.6488 99.8057 61.4077 95.9098 64.591L77.6453 79.5144C71.612 84.4441 62.5904 79.8993 62.961 72.1169L63.5 60.7977L64.2489 40.5779C64.3962 36.6024 67.2521 33.2474 71.153 32.4672C73.3027 32.0373 75.5355 32.4449 77.3945 33.6068L79.8761 35.1578C84.2655 37.9011 88.2022 41.3093 91.5456 45.2607L97.0857 51.8081Z" fill="black"/>
<path d="M280.884 52.7509C277.438 56.5697 277.888 62.4952 281.871 65.7499L299.906 80.4854C305.939 85.4151 314.96 80.8703 314.59 73.0879L314.051 61.7688L313.3 41.4904C313.154 37.5493 310.323 34.2232 306.455 33.4497C304.273 33.0132 302.006 33.448 300.14 34.661L298.537 35.7028C294.895 38.0701 291.577 40.9019 288.667 44.1266L280.884 52.7509Z" fill="black"/>
<path d="M461.152 179.303C460.321 178.782 459.406 176.975 458.928 174.909C458.606 173.519 457.642 169.408 453.068 168.206C452.979 168.17 452.885 168.141 452.787 168.122C452.739 168.112 452.696 168.11 452.649 168.101C452.603 168.092 452.561 168.077 452.514 168.068C452.416 168.049 452.319 168.04 452.222 168.039C447.535 167.413 445.08 170.85 444.255 172.013C443.027 173.743 441.494 175.067 440.528 175.233C436.396 175.943 433.39 179.043 433.218 182.77C433.06 186.187 435.335 189.112 439.155 190.403C439.602 190.554 440.059 190.675 440.521 190.766C441.782 191.015 443.086 191.04 444.36 190.836C444.916 190.747 445.43 190.617 445.926 190.492C446.784 190.275 447.533 190.088 448.296 190.161C449.029 190.383 449.652 190.841 450.363 191.368C450.774 191.672 451.199 191.987 451.68 192.281C452.78 192.953 453.998 193.426 455.258 193.675C455.72 193.766 456.189 193.827 456.66 193.858C460.684 194.115 463.899 192.274 465.052 189.053C466.307 185.539 464.704 181.53 461.152 179.303Z" fill="black"/>
<path d="M440.032 168.895C440.14 165.509 437.846 162.487 434.696 161.865C434.443 161.816 434.185 161.781 433.928 161.764C430.445 161.525 427.516 164.335 427.399 168.029C427.292 171.414 429.586 174.436 432.736 175.058C432.989 175.108 433.247 175.142 433.504 175.16C436.987 175.398 439.916 172.588 440.032 168.895Z" fill="black"/>
<path d="M444.829 165.647C448.262 166.324 451.635 163.935 452.349 160.321C453.062 156.707 450.849 153.215 447.416 152.538C443.983 151.86 440.61 154.249 439.896 157.863C439.183 161.477 441.396 164.969 444.829 165.647Z" fill="black"/>
<path d="M475.502 172.286C474.693 170.704 473.313 169.589 471.616 169.148C468.222 168.262 464.667 170.455 463.681 173.99C463.215 175.662 463.376 177.402 464.137 178.888C464.946 180.471 466.326 181.585 468.024 182.027C468.143 182.058 468.262 182.085 468.381 182.108C471.678 182.759 475.007 180.596 475.959 177.184C476.424 175.512 476.263 173.773 475.502 172.286Z" fill="black"/>
<path d="M460.609 168.761C464.042 169.439 467.416 167.05 468.129 163.436C468.842 159.822 466.63 156.33 463.197 155.652C459.763 154.975 456.39 157.364 455.677 160.978C454.963 164.592 457.177 168.084 460.609 168.761Z" fill="black"/>
</g>
<defs>
<clipPath id="clip0_41_1972">
<rect width="490" height="312" fill="white"/>
</clipPath>
</defs>
</svg>
